<svg viewBox="0 0 1024 1024" fill="none" xmlns="http://www.w3.org/2000/svg">
<path d="M712 415.75C712 453.72 622.457 484.5 512 484.5C401.543 484.5 312 453.72 312 415.75C312 377.78 401.543 347 512 347C622.457 347 712 377.78 712 415.75Z" fill="black"/>
<path d="M512 732C732.914 732 912 670.439 912 594.5V732C912 807.939 732.914 869.5 512 869.5C291.086 869.5 112 807.939 112 732V594.5C112 670.439 291.086 732 512 732Z" fill="black"/>
<path d="M778.667 504.487C860.499 479.31 911.998 442.723 911.998 402V292C911.998 332.723 860.499 369.31 778.667 394.487V504.487Z" fill="black"/>
<path d="M245.333 394.488C163.5 369.311 112 332.723 112 292V402C112 442.723 163.5 479.311 245.333 504.488V394.488Z" fill="black"/>
<path d="M758.665 179.239C712.153 167.229 657.775 158.625 598.666 154.5V292C657.775 296.125 712.153 304.729 758.665 316.739V179.239Z" fill="black"/>
<path d="M278.667 179.24C325.18 167.23 379.557 158.625 438.666 154.5V292C379.557 296.125 325.18 304.73 278.667 316.74V179.24Z" fill="black"/>
<path d="M912 429.5C912 505.439 732.914 567 512 567C291.086 567 112 505.439 112 429.5V567C112 641.405 283.925 702.007 498.666 704.425V567H512H538.666V704.199C747.147 699.482 912 639.859 912 567V429.5Z" fill="black"/>
</svg>
