<svg viewBox="0 0 2630 600" fill="none" xmlns="http://www.w3.org/2000/svg">
<path d="M415.174 219.12C415.174 250.966 353.214 276.783 276.783 276.783C200.351 276.783 138.391 250.966 138.391 219.12C138.391 187.273 200.351 161.457 276.783 161.457C353.214 161.457 415.174 187.273 415.174 219.12Z" fill="black"/>
<path d="M276.783 484.37C429.645 484.37 553.565 432.736 553.565 369.043V484.37C553.565 548.062 429.645 599.696 276.783 599.696C123.92 599.696 0 548.062 0 484.37V369.043C0 432.736 123.92 484.37 276.783 484.37Z" fill="black"/>
<path d="M461.304 293.547C517.929 272.43 553.564 241.742 553.564 207.587V115.326C553.564 149.482 517.929 180.169 461.304 201.286V293.547Z" fill="black"/>
<path d="M92.261 201.286C35.636 180.169 0 149.482 0 115.326V207.587C0 241.743 35.636 272.43 92.261 293.547V201.286Z" fill="black"/>
<path d="M447.464 20.749C415.28 10.677 377.653 3.46 336.752 0V115.326C377.653 118.786 415.28 126.003 447.464 136.075V20.749Z" fill="black"/>
<path d="M115.326 20.75C147.511 10.677 185.138 3.46 226.039 0V115.326C185.138 118.786 147.511 126.003 115.326 136.076V20.75Z" fill="black"/>
<path d="M553.565 230.652C553.565 294.345 429.645 345.978 276.783 345.978C123.92 345.978 0 294.345 0 230.652V345.978C0 408.385 118.964 459.214 267.556 461.241V345.978H276.783H295.234V461.052C439.494 457.096 553.565 407.088 553.565 345.978V230.652Z" fill="black"/>
<path d="M844.09 397.169C824.9 397.169 808.3 393.018 794.274 384.714C780.435 376.226 769.732 364.509 762.167 349.563C754.602 334.432 750.819 316.995 750.819 297.251C750.819 277.322 754.602 259.885 762.167 244.939C769.732 229.808 780.435 217.999 794.274 209.511C808.3 201.023 824.9 196.779 844.09 196.779C866.79 196.779 885.34 202.314 899.73 213.386C914.12 224.457 923.25 239.957 927.13 259.885H894.47C891.89 248.629 886.35 239.68 877.86 233.037C869.37 226.394 858.03 223.073 843.82 223.073C824.44 223.073 809.13 229.716 797.872 243.001C786.616 256.102 780.988 274.186 780.988 297.251C780.988 320.131 786.616 338.122 797.872 351.223C809.13 364.324 824.44 370.875 843.82 370.875C858.03 370.875 869.37 367.738 877.86 361.464C886.35 355.191 891.89 346.61 894.47 335.724H927.13C923.25 354.914 914.12 369.952 899.73 380.839C885.34 391.726 866.79 397.169 844.09 397.169ZM966.58 230.546C961.04 230.546 956.43 228.885 952.74 225.564C949.23 222.058 947.48 217.722 947.48 212.555C947.48 207.389 949.23 203.145 952.74 199.823C956.43 196.317 961.04 194.564 966.58 194.564C972.11 194.564 976.63 196.317 980.14 199.823C983.83 203.145 985.67 207.389 985.67 212.555C985.67 217.722 983.83 222.058 980.14 225.564C976.63 228.885 972.11 230.546 966.58 230.546ZM951.91 393.848V256.564H981.24V393.848H951.91ZM1069.24 393.848C1055.77 393.848 1045.07 390.619 1037.14 384.161C1029.2 377.518 1025.23 365.801 1025.23 349.009V281.197H1001.71V256.564H1025.23L1028.83 221.689H1054.57V256.564H1093.32V281.197H1054.57V349.009C1054.57 356.575 1056.14 361.833 1059.28 364.786C1062.6 367.554 1068.23 368.937 1076.16 368.937H1091.94V393.848H1069.24ZM1161.77 397.169C1150.14 397.169 1140.55 395.232 1132.98 391.357C1125.42 387.482 1119.79 382.408 1116.1 376.134C1112.41 369.676 1110.56 362.664 1110.56 355.098C1110.56 341.813 1115.73 331.295 1126.06 323.545C1136.4 315.795 1151.16 311.92 1170.35 311.92H1206.33V309.429C1206.33 298.727 1203.38 290.7 1197.47 285.349C1191.75 279.998 1184.28 277.322 1175.06 277.322C1166.94 277.322 1159.83 279.352 1153.74 283.412C1147.84 287.287 1144.24 293.099 1142.95 300.849H1113.61C1114.53 290.885 1117.85 282.397 1123.57 275.385C1129.48 268.189 1136.86 262.745 1145.72 259.055C1154.76 255.18 1164.63 253.242 1175.33 253.242C1194.52 253.242 1209.38 258.317 1219.89 268.465C1230.41 278.43 1235.67 292.084 1235.67 309.429V393.848H1210.21L1207.72 370.321C1203.84 377.887 1198.21 384.253 1190.83 389.419C1183.45 394.586 1173.76 397.169 1161.77 397.169ZM1167.58 373.366C1175.52 373.366 1182.16 371.521 1187.51 367.83C1193.05 363.955 1197.29 358.881 1200.24 352.607C1203.38 346.334 1205.32 339.414 1206.05 331.849H1173.39C1161.77 331.849 1153.47 333.878 1148.48 337.938C1143.69 341.997 1141.29 347.072 1141.29 353.161C1141.29 359.435 1143.59 364.417 1148.21 368.107C1153 371.613 1159.46 373.366 1167.58 373.366ZM1324.13 397.169C1310.84 397.169 1299.13 394.032 1288.98 387.759C1278.83 381.485 1270.89 372.905 1265.17 362.018C1259.45 351.131 1256.59 338.768 1256.59 324.929C1256.59 311.09 1259.45 298.819 1265.17 288.117C1270.89 277.23 1278.83 268.742 1288.98 262.653C1299.31 256.379 1311.12 253.242 1324.41 253.242C1335.29 253.242 1344.8 255.364 1352.91 259.608C1361.22 263.852 1367.68 269.849 1372.29 277.599V194.564H1401.63V393.848H1375.33L1372.29 372.536C1367.86 378.994 1361.77 384.714 1354.02 389.696C1346.27 394.678 1336.31 397.169 1324.13 397.169ZM1329.39 371.705C1341.94 371.705 1352.18 367.369 1360.11 358.697C1368.23 350.024 1372.29 338.86 1372.29 325.206C1372.29 311.367 1368.23 300.203 1360.11 291.715C1352.18 283.043 1341.94 278.706 1329.39 278.706C1316.84 278.706 1306.51 283.043 1298.39 291.715C1290.27 300.203 1286.21 311.367 1286.21 325.206C1286.21 334.247 1288.05 342.274 1291.75 349.286C1295.44 356.298 1300.51 361.833 1306.97 365.893C1313.61 369.768 1321.08 371.705 1329.39 371.705ZM1494.53 397.169C1481.06 397.169 1469.07 394.217 1458.55 388.312C1448.21 382.223 1440.1 373.827 1434.19 363.125C1428.29 352.423 1425.33 339.968 1425.33 325.759C1425.33 311.367 1428.19 298.727 1433.91 287.84C1439.82 276.953 1447.94 268.465 1458.27 262.376C1468.79 256.287 1480.97 253.242 1494.81 253.242C1508.28 253.242 1519.99 256.287 1529.96 262.376C1539.92 268.281 1547.67 276.215 1553.21 286.179C1558.74 296.144 1561.51 307.123 1561.51 319.117C1561.51 320.962 1561.42 322.992 1561.23 325.206C1561.23 327.236 1561.14 329.542 1560.96 332.125H1454.12C1455.04 345.411 1459.38 355.56 1467.13 362.571C1475.06 369.399 1484.2 372.812 1494.53 372.812C1502.83 372.812 1509.75 370.967 1515.29 367.277C1521.01 363.402 1525.25 358.235 1528.02 351.777H1557.36C1553.67 364.693 1546.29 375.488 1535.22 384.161C1524.33 392.833 1510.77 397.169 1494.53 397.169ZM1494.53 277.322C1484.75 277.322 1476.08 280.275 1468.51 286.179C1460.95 291.9 1456.33 300.572 1454.67 312.197H1532.17C1531.62 301.495 1527.84 293.007 1520.82 286.733C1513.81 280.459 1505.05 277.322 1494.53 277.322ZM1580.88 325.759V301.126H1693.53V325.759H1580.88ZM1773.95 397.169C1756.6 397.169 1742.3 392.925 1731.04 384.437C1719.79 375.949 1713.33 364.693 1711.67 350.67H1741.29C1742.76 356.944 1746.27 362.387 1751.8 367C1757.34 371.429 1764.63 373.643 1773.67 373.643C1782.53 373.643 1788.98 371.798 1793.04 368.107C1797.1 364.417 1799.13 360.173 1799.13 355.375C1799.13 348.363 1796.27 343.658 1790.55 341.259C1785.02 338.676 1777.27 336.369 1767.3 334.34C1759.55 332.679 1751.8 330.465 1744.05 327.697C1736.49 324.929 1730.12 321.054 1724.96 316.072C1719.97 310.905 1717.48 303.986 1717.48 295.313C1717.48 283.319 1722.1 273.355 1731.32 265.421C1740.55 257.302 1753.46 253.242 1770.07 253.242C1785.39 253.242 1797.75 256.933 1807.16 264.314C1816.75 271.694 1822.38 282.12 1824.04 295.59H1795.81C1794.89 289.685 1792.12 285.072 1787.51 281.751C1783.08 278.43 1777.08 276.769 1769.52 276.769C1762.14 276.769 1756.42 278.337 1752.36 281.474C1748.3 284.426 1746.27 288.301 1746.27 293.099C1746.27 297.897 1749.04 301.679 1754.57 304.447C1760.29 307.215 1767.76 309.706 1776.99 311.92C1786.22 313.95 1794.7 316.349 1802.45 319.117C1810.39 321.7 1816.75 325.575 1821.55 330.741C1826.35 335.908 1828.75 343.473 1828.75 353.438C1828.93 365.985 1824.04 376.411 1814.08 384.714C1804.3 393.018 1790.92 397.169 1773.95 397.169ZM1898.97 397.169C1887.35 397.169 1877.75 395.232 1870.19 391.357C1862.62 387.482 1857 382.408 1853.3 376.134C1849.61 369.676 1847.77 362.664 1847.77 355.098C1847.77 341.813 1852.94 331.295 1863.27 323.545C1873.6 315.795 1888.36 311.92 1907.55 311.92H1943.54V309.429C1943.54 298.727 1940.58 290.7 1934.68 285.349C1928.96 279.998 1921.49 277.322 1912.26 277.322C1904.14 277.322 1897.04 279.352 1890.95 283.412C1885.04 287.287 1881.44 293.099 1880.15 300.849H1850.81C1851.74 290.885 1855.06 282.397 1860.78 275.385C1866.68 268.189 1874.06 262.745 1882.92 259.055C1891.96 255.18 1901.83 253.242 1912.54 253.242C1931.73 253.242 1946.58 258.317 1957.1 268.465C1967.62 278.43 1972.87 292.084 1972.87 309.429V393.848H1947.41L1944.92 370.321C1941.04 377.887 1935.42 384.253 1928.04 389.419C1920.66 394.586 1910.97 397.169 1898.97 397.169ZM1904.79 373.366C1912.72 373.366 1919.36 371.521 1924.71 367.83C1930.25 363.955 1934.49 358.881 1937.45 352.607C1940.58 346.334 1942.52 339.414 1943.26 331.849H1910.6C1898.97 331.849 1890.67 333.878 1885.69 337.938C1880.89 341.997 1878.49 347.072 1878.49 353.161C1878.49 359.435 1880.8 364.417 1885.41 368.107C1890.21 371.613 1896.67 373.366 1904.79 373.366ZM2053.58 397.169C2036.24 397.169 2021.94 392.925 2010.68 384.437C1999.43 375.949 1992.97 364.693 1991.31 350.67H2020.92C2022.4 356.944 2025.9 362.387 2031.44 367C2036.98 371.429 2044.26 373.643 2053.31 373.643C2062.16 373.643 2068.62 371.798 2072.68 368.107C2076.74 364.417 2078.77 360.173 2078.77 355.375C2078.77 348.363 2075.91 343.658 2070.19 341.259C2064.65 338.676 2056.9 336.369 2046.94 334.34C2039.19 332.679 2031.44 330.465 2023.69 327.697C2016.12 324.929 2009.76 321.054 2004.59 316.072C1999.61 310.905 1997.12 303.986 1997.12 295.313C1997.12 283.319 2001.73 273.355 2010.96 265.421C2020.18 257.302 2033.1 253.242 2049.71 253.242C2065.02 253.242 2077.39 256.933 2086.8 264.314C2096.39 271.694 2102.02 282.12 2103.68 295.59H2075.45C2074.53 289.685 2071.76 285.072 2067.15 281.751C2062.72 278.43 2056.72 276.769 2049.15 276.769C2041.77 276.769 2036.05 278.337 2031.99 281.474C2027.93 284.426 2025.9 288.301 2025.9 293.099C2025.9 297.897 2028.67 301.679 2034.21 304.447C2039.93 307.215 2047.4 309.706 2056.63 311.92C2065.85 313.95 2074.34 316.349 2082.09 319.117C2090.03 321.7 2096.39 325.575 2101.19 330.741C2105.99 335.908 2108.39 343.473 2108.39 353.438C2108.57 365.985 2103.68 376.411 2093.72 384.714C2083.94 393.018 2070.56 397.169 2053.58 397.169ZM2132.11 393.848V194.564H2161.45V278.706C2166.06 270.772 2172.43 264.59 2180.55 260.162C2188.85 255.549 2197.99 253.242 2207.95 253.242C2224.37 253.242 2237.29 258.409 2246.7 268.742C2256.11 279.075 2260.82 294.483 2260.82 314.965V393.848H2231.75V318.009C2231.75 291.438 2221.14 278.153 2199.92 278.153C2188.85 278.153 2179.63 282.028 2172.24 289.778C2165.05 297.528 2161.45 308.599 2161.45 322.992V393.848H2132.11ZM2303.67 230.546C2298.14 230.546 2293.52 228.885 2289.83 225.564C2286.33 222.058 2284.58 217.722 2284.58 212.555C2284.58 207.389 2286.33 203.145 2289.83 199.823C2293.52 196.317 2298.14 194.564 2303.67 194.564C2309.21 194.564 2313.73 196.317 2317.24 199.823C2320.93 203.145 2322.77 207.389 2322.77 212.555C2322.77 217.722 2320.93 222.058 2317.24 225.564C2313.73 228.885 2309.21 230.546 2303.67 230.546ZM2289 393.848V256.564H2318.34V393.848H2289ZM2348.77 393.848V256.564H2374.79L2377.28 275.938C2381.71 268.927 2387.52 263.391 2394.72 259.332C2402.1 255.272 2410.58 253.242 2420.18 253.242C2441.95 253.242 2457.08 261.823 2465.57 278.983C2470.55 271.049 2477.2 264.775 2485.5 260.162C2493.99 255.549 2503.12 253.242 2512.9 253.242C2530.06 253.242 2543.53 258.409 2553.31 268.742C2563.09 279.075 2567.98 294.483 2567.98 314.965V393.848H2538.64V318.009C2538.64 291.438 2528.49 278.153 2508.2 278.153C2497.86 278.153 2489.37 282.028 2482.73 289.778C2476.27 297.528 2473.04 308.599 2473.04 322.992V393.848H2443.71V318.009C2443.71 291.438 2433.46 278.153 2412.98 278.153C2402.83 278.153 2394.44 282.028 2387.8 289.778C2381.34 297.528 2378.11 308.599 2378.11 322.992V393.848H2348.77ZM2610.61 230.546C2605.07 230.546 2600.46 228.885 2596.77 225.564C2593.26 222.058 2591.51 217.722 2591.51 212.555C2591.51 207.389 2593.26 203.145 2596.77 199.823C2600.46 196.317 2605.07 194.564 2610.61 194.564C2616.15 194.564 2620.67 196.317 2624.17 199.823C2627.86 203.145 2629.71 207.389 2629.71 212.555C2629.71 217.722 2627.86 222.058 2624.17 225.564C2620.67 228.885 2616.15 230.546 2610.61 230.546ZM2595.94 393.848V256.564H2625.28V393.848H2595.94Z" fill="black"/>
</svg>
