<svg viewBox="0 0 1000 229" fill="none" xmlns="http://www.w3.org/2000/svg">
<path d="M157.878 83.3246C157.878 95.4347 134.317 105.252 105.252 105.252C76.1876 105.252 52.626 95.4347 52.626 83.3246C52.626 71.2144 76.1876 61.397 105.252 61.397C134.317 61.397 157.878 71.2144 157.878 83.3246Z" fill="url(#paint0_linear_10_2)"/>
<path d="M105.252 184.191C163.381 184.191 210.504 164.556 210.504 140.336V184.191C210.504 208.411 163.381 228.046 105.252 228.046C47.1231 228.046 0 208.411 0 184.191V140.336C0 164.556 47.1231 184.191 105.252 184.191Z" fill="url(#paint1_linear_10_2)"/>
<path d="M175.42 111.627C196.953 103.597 210.503 91.9272 210.503 78.9391V43.855C210.503 56.8431 196.953 68.513 175.42 76.5428V111.627Z" fill="url(#paint2_linear_10_2)"/>
<path d="M35.084 76.5428C13.5512 68.513 0 56.8431 0 43.855V78.9391C0 91.9272 13.5512 103.597 35.084 111.627V76.5428Z" fill="url(#paint3_linear_10_2)"/>
<path d="M170.158 7.8904C157.919 4.0601 143.611 1.31565 128.058 0V43.855C143.611 45.1707 157.919 47.9151 170.158 51.7454V7.8904Z" fill="url(#paint4_linear_10_2)"/>
<path d="M43.855 7.8904C56.0941 4.0601 70.4022 1.31565 85.9558 0V43.855C70.4022 45.1707 56.0941 47.9151 43.855 51.7454V7.8904Z" fill="url(#paint5_linear_10_2)"/>
<path d="M210.504 87.7101C210.504 111.93 163.381 131.565 105.252 131.565C47.1231 131.565 0 111.93 0 87.7101V131.565C0 155.296 45.2382 174.625 101.744 175.396V131.565H105.252H112.269V175.325C167.126 173.819 210.504 154.803 210.504 131.565V87.7101Z" fill="url(#paint6_linear_10_2)"/>
<path d="M320.982 150.371C313.684 150.371 307.369 148.792 302.036 145.635C296.774 142.407 292.704 137.951 289.827 132.268C286.95 126.514 285.512 119.883 285.512 112.375C285.512 104.797 286.95 98.166 289.827 92.4824C292.704 86.7286 296.774 82.2379 302.036 79.0102C307.369 75.7824 313.684 74.1686 320.982 74.1686C329.612 74.1686 336.664 76.2736 342.137 80.4837C347.61 84.6938 351.084 90.5879 352.557 98.166H340.137C339.155 93.8858 337.05 90.4826 333.822 87.9566C330.595 85.4305 326.279 84.1675 320.876 84.1675C313.509 84.1675 307.685 86.6936 303.405 91.7457C299.124 96.7276 296.984 103.604 296.984 112.375C296.984 121.076 299.124 127.917 303.405 132.899C307.685 137.881 313.509 140.372 320.876 140.372C326.279 140.372 330.595 139.179 333.822 136.794C337.05 134.408 339.155 131.145 340.137 127.005H352.557C351.084 134.303 347.61 140.021 342.137 144.161C336.664 148.301 329.612 150.371 320.982 150.371ZM367.557 87.0093C365.452 87.0093 363.698 86.3778 362.295 85.1148C360.962 83.7816 360.295 82.1326 360.295 80.1679C360.295 78.2032 360.962 76.5894 362.295 75.3263C363.698 73.9931 365.452 73.3266 367.557 73.3266C369.662 73.3266 371.382 73.9931 372.715 75.3263C374.118 76.5894 374.82 78.2032 374.82 80.1679C374.82 82.1326 374.118 83.7816 372.715 85.1148C371.382 86.3778 369.662 87.0093 367.557 87.0093ZM361.979 149.108V96.903H373.136V149.108H361.979ZM406.598 149.108C401.476 149.108 397.406 147.88 394.389 145.424C391.372 142.898 389.863 138.442 389.863 132.057V106.27H380.917V96.903H389.863L391.231 83.6412H401.02V96.903H415.755V106.27H401.02V132.057C401.02 134.934 401.616 136.934 402.809 138.057C404.072 139.109 406.212 139.635 409.229 139.635H415.229V149.108H406.598ZM441.784 150.371C437.363 150.371 433.714 149.634 430.838 148.161C427.961 146.687 425.821 144.758 424.417 142.372C423.014 139.916 422.312 137.25 422.312 134.373C422.312 129.321 424.277 125.321 428.206 122.374C432.136 119.427 437.749 117.953 445.047 117.953H458.729V117.006C458.729 112.936 457.607 109.884 455.361 107.849C453.186 105.814 450.344 104.797 446.836 104.797C443.749 104.797 441.047 105.569 438.732 107.112C436.486 108.586 435.118 110.796 434.627 113.743H423.47C423.821 109.954 425.084 106.727 427.259 104.06C429.504 101.324 432.311 99.2536 435.679 97.8503C439.117 96.3768 442.871 95.64 446.941 95.64C454.239 95.64 459.887 97.5696 463.887 101.429C467.886 105.218 469.886 110.41 469.886 117.006V149.108H460.203L459.256 140.162C457.782 143.038 455.642 145.459 452.835 147.424C450.029 149.389 446.345 150.371 441.784 150.371ZM443.994 141.319C447.011 141.319 449.537 140.618 451.572 139.214C453.677 137.741 455.291 135.811 456.414 133.425C457.607 131.04 458.343 128.408 458.624 125.532H446.204C441.784 125.532 438.626 126.303 436.732 127.847C434.907 129.391 433.995 131.32 433.995 133.636C433.995 136.022 434.872 137.916 436.626 139.32C438.451 140.653 440.907 141.319 443.994 141.319ZM503.524 150.371C498.472 150.371 494.016 149.178 490.157 146.792C486.298 144.407 483.28 141.144 481.105 137.004C478.93 132.864 477.842 128.163 477.842 122.9C477.842 117.638 478.93 112.971 481.105 108.902C483.28 104.762 486.298 101.534 490.157 99.2186C494.086 96.8328 498.577 95.64 503.629 95.64C507.769 95.64 511.383 96.4469 514.47 98.0608C517.628 99.6746 520.083 101.955 521.838 104.902V73.3266H532.994V149.108H522.995L521.838 141.004C520.154 143.46 517.838 145.635 514.891 147.529C511.944 149.424 508.155 150.371 503.524 150.371ZM505.524 140.688C510.295 140.688 514.189 139.039 517.207 135.741C520.294 132.443 521.838 128.198 521.838 123.006C521.838 117.743 520.294 113.498 517.207 110.27C514.189 106.972 510.295 105.323 505.524 105.323C500.752 105.323 496.823 106.972 493.735 110.27C490.648 113.498 489.104 117.743 489.104 123.006C489.104 126.444 489.806 129.496 491.209 132.162C492.613 134.829 494.542 136.934 496.998 138.478C499.524 139.951 502.366 140.688 505.524 140.688ZM568.322 150.371C563.2 150.371 558.639 149.248 554.639 147.003C550.71 144.687 547.623 141.495 545.377 137.425C543.132 133.355 542.009 128.619 542.009 123.216C542.009 117.743 543.097 112.936 545.272 108.796C547.517 104.657 550.605 101.429 554.534 99.1133C558.534 96.7978 563.165 95.64 568.427 95.64C573.55 95.64 578.005 96.7978 581.794 99.1133C585.584 101.359 588.531 104.376 590.636 108.165C592.741 111.954 593.793 116.129 593.793 120.69C593.793 121.392 593.758 122.164 593.688 123.006C593.688 123.777 593.653 124.654 593.583 125.637H552.955C553.306 130.689 554.955 134.548 557.902 137.215C560.92 139.811 564.393 141.109 568.322 141.109C571.48 141.109 574.111 140.407 576.216 139.004C578.391 137.53 580.005 135.566 581.058 133.11H592.214C590.811 138.021 588.004 142.126 583.794 145.424C579.654 148.722 574.497 150.371 568.322 150.371ZM568.322 104.797C564.603 104.797 561.305 105.92 558.429 108.165C555.552 110.34 553.797 113.638 553.166 118.059H582.637C582.426 113.989 580.988 110.761 578.321 108.375C575.655 105.99 572.322 104.797 568.322 104.797ZM601.159 123.216V113.849H643.997V123.216H601.159ZM674.576 150.371C667.98 150.371 662.542 148.757 658.262 145.529C653.982 142.302 651.526 138.021 650.894 132.689H662.156C662.718 135.074 664.051 137.144 666.156 138.899C668.261 140.583 671.032 141.425 674.471 141.425C677.839 141.425 680.295 140.723 681.838 139.32C683.382 137.916 684.154 136.302 684.154 134.478C684.154 131.812 683.066 130.022 680.891 129.11C678.786 128.128 675.839 127.251 672.05 126.479C669.103 125.847 666.156 125.005 663.209 123.953C660.332 122.9 657.911 121.427 655.946 119.532C654.052 117.568 653.104 114.936 653.104 111.638C653.104 107.077 654.859 103.288 658.367 100.271C661.875 97.1837 666.787 95.64 673.102 95.64C678.926 95.64 683.628 97.0434 687.206 99.8501C690.855 102.657 692.995 106.621 693.627 111.744H682.891C682.54 109.498 681.487 107.744 679.733 106.481C678.049 105.218 675.769 104.586 672.892 104.586C670.085 104.586 667.91 105.183 666.366 106.376C664.823 107.498 664.051 108.972 664.051 110.796C664.051 112.621 665.103 114.059 667.208 115.112C669.384 116.164 672.225 117.111 675.734 117.953C679.242 118.725 682.47 119.637 685.417 120.69C688.434 121.672 690.855 123.146 692.679 125.111C694.504 127.075 695.416 129.952 695.416 133.741C695.486 138.513 693.627 142.477 689.838 145.635C686.119 148.792 681.031 150.371 674.576 150.371ZM722.12 150.371C717.699 150.371 714.051 149.634 711.174 148.161C708.297 146.687 706.157 144.758 704.753 142.372C703.35 139.916 702.648 137.25 702.648 134.373C702.648 129.321 704.613 125.321 708.543 122.374C712.472 119.427 718.085 117.953 725.383 117.953H739.066V117.006C739.066 112.936 737.943 109.884 735.698 107.849C733.522 105.814 730.681 104.797 727.172 104.797C724.085 104.797 721.383 105.569 719.068 107.112C716.822 108.586 715.454 110.796 714.963 113.743H703.806C704.157 109.954 705.42 106.727 707.595 104.06C709.841 101.324 712.647 99.2536 716.015 97.8503C719.454 96.3768 723.208 95.64 727.277 95.64C734.575 95.64 740.223 97.5696 744.223 101.429C748.223 105.218 750.222 110.41 750.222 117.006V149.108H740.539L739.592 140.162C738.118 143.038 735.978 145.459 733.172 147.424C730.365 149.389 726.681 150.371 722.12 150.371ZM724.33 141.319C727.348 141.319 729.874 140.618 731.909 139.214C734.014 137.741 735.627 135.811 736.75 133.425C737.943 131.04 738.68 128.408 738.96 125.532H726.541C722.12 125.532 718.962 126.303 717.068 127.847C715.244 129.391 714.331 131.32 714.331 133.636C714.331 136.022 715.209 137.916 716.963 139.32C718.787 140.653 721.243 141.319 724.33 141.319ZM780.913 150.371C774.317 150.371 768.879 148.757 764.599 145.529C760.319 142.302 757.863 138.021 757.231 132.689H768.493C769.055 135.074 770.388 137.144 772.493 138.899C774.598 140.583 777.37 141.425 780.808 141.425C784.176 141.425 786.632 140.723 788.175 139.32C789.722 137.916 790.494 136.302 790.494 134.478C790.494 131.812 789.406 130.022 787.228 129.11C785.123 128.128 782.176 127.251 778.387 126.479C775.44 125.847 772.493 125.005 769.546 123.953C766.669 122.9 764.248 121.427 762.283 119.532C760.389 117.568 759.442 114.936 759.442 111.638C759.442 107.077 761.196 103.288 764.704 100.271C768.213 97.1837 773.124 95.64 779.439 95.64C785.263 95.64 789.967 97.0434 793.546 99.8501C797.195 102.657 799.335 106.621 799.966 111.744H789.228C788.877 109.498 787.825 107.744 786.07 106.481C784.386 105.218 782.106 104.586 779.229 104.586C776.422 104.586 774.247 105.183 772.703 106.376C771.16 107.498 770.388 108.972 770.388 110.796C770.388 112.621 771.44 114.059 773.545 115.112C775.721 116.164 778.562 117.111 782.071 117.953C785.579 118.725 788.807 119.637 791.757 120.69C794.774 121.672 797.195 123.146 799.019 125.111C800.843 127.075 801.756 129.952 801.756 133.741C801.826 138.513 799.966 142.477 796.177 145.635C792.458 148.792 787.368 150.371 780.913 150.371ZM810.772 149.108V73.3266H821.929V105.323C823.683 102.306 826.104 99.9553 829.191 98.2713C832.349 96.5171 835.822 95.64 839.611 95.64C845.856 95.64 850.768 97.6047 854.346 101.534C857.925 105.464 859.714 111.323 859.714 119.111V149.108H848.663V120.269C848.663 110.165 844.628 105.113 836.559 105.113C832.349 105.113 828.84 106.586 826.034 109.533C823.297 112.48 821.929 116.69 821.929 122.164V149.108H810.772ZM876.02 87.0093C873.915 87.0093 872.16 86.3778 870.757 85.1148C869.424 83.7816 868.757 82.1326 868.757 80.1679C868.757 78.2032 869.424 76.5894 870.757 75.3263C872.16 73.9931 873.915 73.3266 876.02 73.3266C878.125 73.3266 879.844 73.9931 881.177 75.3263C882.58 76.5894 883.282 78.2032 883.282 80.1679C883.282 82.1326 882.58 83.7816 881.177 85.1148C879.844 86.3778 878.125 87.0093 876.02 87.0093ZM870.441 149.108V96.903H881.598V149.108H870.441ZM893.167 149.108V96.903H903.061L904.008 104.271C905.692 101.604 907.902 99.4992 910.639 97.9555C913.446 96.4118 916.673 95.64 920.322 95.64C928.602 95.64 934.356 98.9028 937.583 105.428C939.478 102.411 942.004 100.025 945.161 98.2713C948.389 96.5171 951.862 95.64 955.581 95.64C962.107 95.64 967.229 97.6047 970.948 101.534C974.667 105.464 976.527 111.323 976.527 119.111V149.108H965.37V120.269C965.37 110.165 961.511 105.113 953.792 105.113C949.863 105.113 946.635 106.586 944.109 109.533C941.653 112.48 940.425 116.69 940.425 122.164V149.108H929.268V120.269C929.268 110.165 925.374 105.113 917.585 105.113C913.726 105.113 910.533 106.586 908.007 109.533C905.552 112.48 904.324 116.69 904.324 122.164V149.108H893.167ZM992.735 87.0093C990.63 87.0093 988.876 86.3778 987.473 85.1148C986.14 83.7816 985.473 82.1326 985.473 80.1679C985.473 78.2032 986.14 76.5894 987.473 75.3263C988.876 73.9931 990.63 73.3266 992.735 73.3266C994.84 73.3266 996.56 73.9931 997.893 75.3263C999.296 76.5894 999.998 78.2032 999.998 80.1679C999.998 82.1326 999.296 83.7816 997.893 85.1148C996.56 86.3778 994.84 87.0093 992.735 87.0093ZM987.157 149.108V96.903H998.314V149.108H987.157Z" fill="black" class="logotype" />
<defs>
<linearGradient id="paint0_linear_10_2" x1="230.166" y1="-430.334" x2="454.744" y2="590.245" gradientUnits="userSpaceOnUse">
<stop stop-color="#03B8FF"/>
<stop offset="1" stop-color="#FA52A0"/>
</linearGradient>
<linearGradient id="paint1_linear_10_2" x1="365.083" y1="-420.408" x2="477.371" y2="89.881" gradientUnits="userSpaceOnUse">
<stop stop-color="#03B8FF"/>
<stop offset="1" stop-color="#FA52A0"/>
</linearGradient>
<linearGradient id="paint2_linear_10_2" x1="-2809.56" y1="-219.441" x2="-2776.77" y2="471.396" gradientUnits="userSpaceOnUse">
<stop stop-color="#03B8FF"/>
<stop offset="1" stop-color="#FA52A0"/>
</linearGradient>
<linearGradient id="paint3_linear_10_2" x1="2190.5" y1="-219.441" x2="2223.29" y2="471.396" gradientUnits="userSpaceOnUse">
<stop stop-color="#03B8FF"/>
<stop offset="1" stop-color="#FA52A0"/>
</linearGradient>
<linearGradient id="paint4_linear_10_2" x1="-1216.25" y1="-94.1326" x2="-1148.97" y2="807.687" gradientUnits="userSpaceOnUse">
<stop stop-color="#03B8FF"/>
<stop offset="1" stop-color="#FA52A0"/>
</linearGradient>
<linearGradient id="paint5_linear_10_2" x1="783.748" y1="-94.1326" x2="851.022" y2="807.687" gradientUnits="userSpaceOnUse">
<stop stop-color="#03B8FF"/>
<stop offset="1" stop-color="#FA52A0"/>
</linearGradient>
<linearGradient id="paint6_linear_10_2" x1="365.083" y1="-283.657" x2="477.429" y2="226.757" gradientUnits="userSpaceOnUse">
<stop stop-color="#03B8FF"/>
<stop offset="1" stop-color="#FA52A0"/>
</linearGradient>
</defs>
</svg>
