<svg viewBox="0 0 1877 1043" fill="none" xmlns="http://www.w3.org/2000/svg">
<path d="M1877 0H37V1020H1877V0Z" fill="#1E293B"/>
<path d="M50.83 0V1020Z" fill="black"/>
<path d="M50.83 0V1020" stroke="#0E0F23"/>
<path d="M322.91 0V1020Z" fill="black"/>
<path d="M322.91 0V1020" stroke="#0E0F23"/>
<path d="M604.22 0V1020Z" fill="black"/>
<path d="M604.22 0V1020" stroke="#0E0F23"/>
<path d="M885.52 0V1020Z" fill="black"/>
<path d="M885.52 0V1020" stroke="#0E0F23"/>
<path d="M1171.44 0V1020Z" fill="black"/>
<path d="M1171.44 0V1020" stroke="#0E0F23"/>
<path d="M1452.74 0V1020Z" fill="black"/>
<path d="M1452.74 0V1020" stroke="#0E0F23"/>
<path d="M1734.04 0V1020Z" fill="black"/>
<path d="M1734.04 0V1020" stroke="#0E0F23"/>
<mask id="mask0_5_179" style="mask-type:luminance" maskUnits="userSpaceOnUse" x="37" y="0" width="1840" height="1020">
<path d="M1877 0H37V1020H1877V0Z" fill="white"/>
</mask>
<g mask="url(#mask0_5_179)">
<path d="M37 445.63L55.45 430.69L73.89 369.08H203.02L221.46 371.12L239.91 255.84L258.35 268.51H313.69L332.14 270.85L350.58 288.11H369.03H387.48L405.92 290.39L424.37 305.44L442.81 275.41L461.26 198.87L479.71 208.27L498.15 222.69H516.6H535.05L553.49 225.17L571.94 86.79H590.38H756.4L774.84 89.67L793.29 110.27H811.74H848.63L867.08 113.09L885.52 129.4H903.97L922.41 132.16L940.86 146.03L959.31 148.74L977.75 105.61L996.2 124.82L1014.64 116.84L1033.09 137.04L1051.54 85.36L1069.98 101.83L1088.43 104.66L1106.87 120.06H1125.32H1199.11L1217.55 122.85L1236 137.96H1254.44H1402.01L1420.46 140.69L1457.35 173.59H1475.8H1734.04L1752.49 176.21L1770.93 167.19L1789.38 160.13L1807.83 108.91L1826.27 111.72L1844.72 51L1863.17 53.99" stroke="#008800" stroke-width="2" stroke-miterlimit="2"/>
<path d="M50.83 443.81H1877" stroke="#000088" stroke-width="2" stroke-miterlimit="2"/>
<path d="M50.83 443.81L55.45 449.96L60.06 477.75L64.67 491.6L69.28 531.42L73.89 520.73L78.5 566.81L83.12 580.89L87.73 551.9L92.34 563.37L96.95 494.48L101.56 485.87L106.17 516.23L110.78 499.44L115.4 496.4L120.01 501.63L124.62 525.72L133.84 570.78L138.45 588.07L143.07 650.56L147.68 689.63L152.29 670.43L156.9 695.07L161.51 682.63L166.12 675.42L170.73 675.73L175.35 654.44L179.96 651.07L184.57 671.54L189.18 662.07L193.79 661.19L198.4 686.78L203.02 683.64L207.63 651.81L212.24 645.57L216.85 640.5L221.46 573.87L226.07 590.8L230.68 568.86L235.3 603.88L239.91 645.5L244.52 650.15L249.13 657.51L253.74 659.43L258.35 610.81L262.96 616.15L267.58 658.09L272.19 673.56L276.8 666.35L286.02 718.34L290.63 704.69L295.25 710.73L299.86 711.74L304.47 684.59L309.08 693.38L313.69 707.89L318.3 670.26L327.53 664.51L332.14 676.27L336.75 702.5L341.36 694.92L345.97 711.66L350.58 717.49L355.2 709.27L359.81 695.09L364.42 710.66L369.03 718.13L373.64 720.72L378.25 729.34L382.86 725.63L387.48 724.97L392.09 705.1L396.7 708.06L401.31 696.22L405.92 690.85L410.53 704.64L415.15 705.59L419.76 696.03L424.37 683.59L428.98 665.99L433.59 677.5L438.2 670.72L442.81 651.59L447.43 658.92L452.04 654.29L456.65 652.94L461.26 668.3L465.87 651.44L470.48 661.13L475.1 651.65L479.71 661L484.32 674.62L488.93 706.18L493.54 693.09L498.15 712.2L502.76 705.91L507.38 713.78L511.99 736.41L516.6 722.44L521.21 714.78L525.82 726.76L530.43 721.86L535.05 722.46L539.66 734.45L544.27 715.49L548.88 713.99L553.49 715.7L558.1 725.78L562.71 720.68L567.33 728.91L571.94 733.25L576.55 731.74L581.16 757.47L585.77 754.26L590.38 758.49L599.61 805.94L604.22 790.59L608.83 796.57L613.44 797.03L618.05 774.62L622.66 799.62L631.89 809.41L636.5 820.56L641.11 858.84L645.72 840.77L650.33 893.26L654.94 908.95L659.56 893.37L664.17 888.97L668.78 876.19L673.39 891.29L678 878.82L682.61 902.98L687.23 894.93L691.84 900.59L696.45 897.11L701.06 890.46L705.67 899.22L710.28 894.53L714.89 897.96L719.51 909.21L724.12 915.31L728.73 911.83L733.34 909.37L737.95 895.68L742.56 894.29L747.18 908.74L751.79 904.57L756.4 911.51L765.62 909.42L770.23 901.51L779.46 907.41L784.07 901.44L788.68 910.32L793.29 923.32L797.9 932.99L802.51 949.28L807.13 952.51L811.74 947.24L816.35 960.23L820.96 956.13L825.57 969L830.18 960.18L839.41 951.47L844.02 943.05L848.63 918.29L853.24 907.02L857.85 908.61L862.46 918.67L871.69 930.26L876.3 933.61L885.52 941.76L890.13 934.14L894.74 941.74L899.36 934.43L903.97 929.49L908.58 926.66L917.8 907.61L922.41 911.64L927.03 915.71L931.64 917.47L936.25 924.24L940.86 900.01L945.47 883.59L950.08 884.11L959.31 872.58L963.92 823.27L968.53 831.82L973.14 853.98L977.75 836.28L982.36 849.24L986.97 844.37L991.59 842.5L996.2 868.3L1000.81 865.86L1005.42 839.32L1010.03 830.26L1014.64 829.18L1019.26 831.51H1023.87L1028.48 839.74L1033.09 843.43L1037.7 840.98L1042.31 840.51L1046.92 831.46L1051.54 836.05L1056.15 836.99L1060.76 833.2L1065.37 840.68L1069.98 829.67L1074.59 833.41L1079.21 830.26L1083.82 808.27L1088.43 814.03L1093.04 825.87L1097.65 829.94L1102.26 842.3L1106.87 847.92L1111.49 868.56L1116.1 865.31L1120.71 856.67L1125.32 859.61L1129.93 853.84L1134.54 858.46L1139.16 857.67L1143.77 870.04L1148.38 860.05L1152.99 866.16L1157.6 857.43L1162.21 858.06L1166.82 854.65L1171.44 841.62L1176.05 845.2L1180.66 840.93L1185.27 840.02L1189.88 842.11L1194.49 857.76L1199.11 852.12L1203.72 851.66L1208.33 840.56L1212.94 836.49L1217.55 839.76L1222.16 831.03L1226.77 850.96L1231.39 846.51L1236 855.8L1240.61 860.43L1245.22 855.01L1249.83 872.72L1254.44 869.46L1259.06 877.47L1263.67 884.39L1268.28 872.78L1272.89 866.68L1277.5 872.72L1282.11 875.9L1286.72 871.87L1291.34 875.88L1295.95 873.88L1305.17 867.24L1309.78 869.65L1314.39 869.85L1319.01 861.25L1323.62 853.36L1328.23 849.02L1332.84 853.93L1337.45 854.12L1342.06 858.81L1346.67 856.25L1351.29 858.13L1355.9 864.16L1365.12 866.94L1369.73 863.58L1374.34 863.71L1378.95 861.44L1383.57 850.66L1388.18 846.49L1392.79 851.11L1397.4 859.19L1402.01 854.39L1406.62 853.82L1411.24 837.84L1415.85 839.19L1425.07 828.87L1429.68 836.91L1434.29 827.69L1438.9 830.49L1443.52 836.5L1448.13 837.15L1452.74 843.92L1457.35 844.7L1461.96 826.19L1466.57 774.8L1471.19 771.44L1475.8 781.73L1480.41 754.6L1485.02 804.45L1489.63 858.99L1494.24 785.14L1498.85 799.97L1503.47 829.6L1508.08 841.19L1512.69 834.6L1517.3 829.09L1521.91 838.41L1526.52 844.39L1531.14 842.91L1535.75 844.2L1540.36 860.37L1544.97 862.78L1549.58 849.95L1554.19 847.31L1558.8 850.16L1563.42 851.26L1568.03 850.98L1572.64 851.24L1577.25 856.5L1581.86 852.6L1586.47 829.58L1591.09 836.11L1595.7 827.42L1600.31 837.32L1604.92 833.21L1609.53 835.91L1614.14 834.61L1618.75 839.08L1623.37 831.72L1627.98 836.03L1632.59 835.93L1637.2 840.1L1641.81 835.53L1646.42 832.71L1651.04 837.49L1655.65 843.81L1660.26 862.87L1664.87 858L1669.48 858.36L1674.09 867.9L1678.7 861.1L1683.32 863.73L1687.93 862.87L1692.54 862.24L1697.15 862.41L1701.76 863.21L1706.37 858.14L1710.98 860.37L1715.6 866.19L1720.21 867.25L1724.82 871.06L1729.43 871.69L1734.04 871.38L1738.65 866.17L1743.27 866.8L1747.88 860.65L1752.49 864.63L1757.1 861.96L1761.71 860.34L1766.32 851.97L1770.93 851.16L1775.55 847.86L1780.16 839.89L1784.77 834.6L1789.38 831.19L1793.99 814.51L1798.6 818.22L1803.22 810.04L1807.83 814.91L1812.44 828.45L1817.05 825.85L1821.66 808.79L1826.27 816.59L1835.5 815.63L1840.11 825.32L1844.72 816.31L1849.33 785.31L1853.94 777.15L1858.55 780.84L1863.17 772.98L1867.78 794.47L1872.39 788.38L1877 768.36" stroke="#ADD8E6" stroke-width="2" stroke-miterlimit="2"/>
<path d="M50.83 443.81L55.45 432.75L60.06 443.69L64.67 438.56L69.28 478.36L73.89 499.44L78.5 536.71L83.12 552.55L87.73 541.26L92.34 554.74L96.95 527.31L101.56 506.81L106.17 527.25L110.78 517.76L115.4 513.83L120.01 509.39L124.62 532.54L129.23 539.76L133.84 552.05L138.45 567.06L143.07 638.1L147.68 663.04L152.29 641.65L156.9 657.44L161.51 654.52L166.12 652.52L170.73 659.77L175.35 640.14L179.96 632.01L184.57 630.85L189.18 617.65L193.79 600.4L198.4 618.98L203.02 617.33L207.63 569.54L212.24 563.99L216.85 557.01L221.46 543.39L226.07 546.34L230.68 528.18L235.3 555.31L239.91 578.02L244.52 581L249.13 586.27L253.74 577.03L258.35 537.03L262.96 545.79L267.58 584.7L272.19 600.87L276.8 605.52L281.41 626.53L286.02 635.98L290.63 624.31L295.25 633.41L299.86 633.02L304.47 605.19L309.08 603.17L313.69 627.82L318.3 580.26L322.91 571.47L327.53 573.67L332.14 592.47L336.75 628.96L341.36 621.17L345.97 638.79L350.58 648.19L355.2 634.5L359.81 610.76L364.42 629.46L369.03 636.96L373.64 635.58L378.25 644.52L382.86 633.45L387.48 627.58L392.09 604.07L396.7 596.47L401.31 575.08L405.92 574.8L410.53 589.74L415.15 583.92L419.76 571.34L424.37 561.82L428.98 548.57L433.59 550.12L438.2 543.72L442.81 520.25L447.43 513.61L452.04 502.95L456.65 504.83L461.26 522.12L465.87 494.52L470.48 496.83L475.1 482.68L479.71 481.46L484.32 501.76L488.93 539.12L493.54 528.58L498.15 536.79L502.76 524.83L507.38 533.99L511.99 570.04L516.6 561.89L521.21 547.12L525.82 564.38L530.43 560.77L535.05 555.99L539.66 567.7L548.88 550.48L553.49 554.27L558.1 569.47L562.71 572.84L567.33 576.74L571.94 578.65L576.55 565.5L581.16 598.42L585.77 585.29L590.38 577.93L594.99 596.44L599.61 610.36L604.22 594.06L608.83 589.39L613.44 602.29L618.05 576.81L622.66 608.29L627.28 615.45L631.89 625.31L636.5 644.76L641.11 689.91L645.72 673.4L650.33 716.71L654.94 735.08L664.17 718.79L668.78 704.49L673.39 724.97L678 712.89L682.61 742.25L687.23 724.96L691.84 734.15L696.45 732.4L701.06 720.58L705.67 733.18L710.28 731.74L714.89 736.88L719.51 761.02L724.12 773.1L728.73 761.16L733.34 758.27L737.95 729.05L742.56 737.24L747.18 756.92L751.79 755.57L756.4 764.44L761.01 760.64L765.62 759.27L770.23 751.26L774.84 757.73L779.46 761.76L784.07 762.29L788.68 782.73L793.29 804.16L797.9 818.83L802.51 856.33L807.13 854.97L811.74 850.78L816.35 878.62L820.96 875.22L825.57 890.27L830.18 869.02L834.79 868.17L839.41 869.08L844.02 881.11L853.24 852.93L857.85 849.84L862.46 857.42L867.08 858.21L876.3 873.69L880.91 878.13L885.52 879.99L890.13 878.13L894.74 877.57L899.36 864.64L903.97 867.65L908.58 858.89L913.19 850.52L917.8 854.38L922.41 854.12L927.03 862.42L936.25 883.65L940.86 871L945.47 857.98L950.08 851.62L954.69 832.19L959.31 834.42L963.92 794.9L968.53 801.66L973.14 805.07L977.75 796.48L982.36 802.6L986.97 800.52L991.59 792.24L996.2 817.85L1000.81 816.88L1005.42 786.25L1010.03 772.72L1014.64 772.06L1019.26 777.23L1023.87 778.77L1028.48 787.38L1033.09 787.09L1042.31 790.53L1046.92 770.45L1051.54 777.3L1056.15 776.91L1060.76 764.2L1065.37 775.75L1069.98 751.89L1074.59 747.6L1079.21 734.57L1083.82 731.25L1088.43 738.49L1093.04 743.29L1097.65 748.15L1102.26 754.69L1106.87 752.72L1111.49 790.71L1116.1 796.29L1120.71 788.99L1125.32 788.71L1129.93 781.86L1134.54 782.91L1139.16 777.49L1143.77 807.25L1148.38 809.93L1152.99 820.47L1157.6 800.42L1162.21 804.8L1166.82 800.44L1171.44 794.76L1176.05 796.45L1180.66 799.34L1185.27 796.44L1189.88 789.28L1194.49 798.61L1199.11 787.87L1203.72 787.11L1208.33 773.06L1212.94 763.48L1217.55 766.3L1222.16 774.47L1226.77 796.65L1231.39 787.27L1236 813.34L1240.61 819.99L1245.22 813.8L1249.83 835.48L1254.44 828.16L1259.06 837.1L1263.67 848.89L1268.28 835.99L1272.89 836.38L1277.5 838.21L1282.11 841.83L1286.72 835.47L1291.34 836L1295.95 834.49L1305.17 836.44L1309.78 839.12L1314.39 844.35L1319.01 836.57L1323.62 831.34L1328.23 832.27L1332.84 832.66L1337.45 835.65L1342.06 838.7L1346.67 837.72L1351.29 842.14L1355.9 844.45L1360.51 841.52L1365.12 842.44L1369.73 841.86L1374.34 844.8L1383.57 835.73L1388.18 838.69L1392.79 843.24L1397.4 843.39L1406.62 838.58L1411.24 830.51L1415.85 833.64L1420.46 814.97L1425.07 797.73L1429.68 806.43L1434.29 799.39L1438.9 789.76L1443.52 794.35L1448.13 796.84L1452.74 796.09L1457.35 805.77L1461.96 804.16L1466.57 785.11L1471.19 787.93L1475.8 797.07L1480.41 797.89L1485.02 835.25L1489.63 872.97L1494.24 841.55L1498.85 842.64L1503.47 848.59L1508.08 853.73L1512.69 849.99L1517.3 849.15L1521.91 854.74L1526.52 856.86L1531.14 855.4L1535.75 853.78L1540.36 866.75L1544.97 871.53L1549.58 867.4L1554.19 859.74L1558.8 856.82L1563.42 857.1L1568.03 856.5L1572.64 857.85L1577.25 862.29L1581.86 854.01L1586.47 841.22L1591.09 844.79L1595.7 841.62L1600.31 850.53L1604.92 844.02L1609.53 847.83L1614.14 845.67L1618.75 851.87L1623.37 843.58L1627.98 847.12L1632.59 846.11L1637.2 847.11L1641.81 845.35L1646.42 837.91L1651.04 839.11L1655.65 846.82L1660.26 862.37L1664.87 858.6L1669.48 859.33L1674.09 862.42L1678.7 853.84L1683.32 854.73L1687.93 854.26L1697.15 853.65L1701.76 853.54L1706.37 852.69L1710.98 855.34L1715.6 858.92L1720.21 857.26L1729.43 857.87L1734.04 856.55L1738.65 854.91L1743.27 855.11L1747.88 848.02L1752.49 849.03L1757.1 845.41L1761.71 846.33L1766.32 842.54L1770.93 837.68L1775.55 834.73L1780.16 826.78L1789.38 816.72L1793.99 799.9L1798.6 800.14L1803.22 795.99L1807.83 797.38L1812.44 806.53L1817.05 800.4L1821.66 782L1826.27 788.09L1830.88 787.94L1835.5 788.34L1840.11 800.14L1844.72 790.52L1849.33 791.91L1853.94 793.28L1858.55 797.41L1863.17 784.62L1867.78 797.57L1872.39 794.51L1877 785.56" stroke="#FFA500" stroke-width="2" stroke-miterlimit="2"/>
<path d="M55.45 443.81L60.06 462.63L64.67 457.93L69.28 491.38L73.89 493.79L78.5 514.82L83.12 517.04L87.73 511.89L92.34 516.37L96.95 505.33L101.56 490.39L106.17 502.36L110.78 501.44L120.01 499.91L124.62 514.15L129.23 517.13L133.84 506.85L138.45 529.6L143.07 581.9L147.68 599.98L152.29 589.27L156.9 575.82L161.51 576.82L170.73 585.98L175.35 572.46L179.96 563.74L184.57 569.66L189.18 560.57L193.79 563.45L198.4 581.85L203.02 583.86L207.63 518.57L212.24 515.82L221.46 484.49L299.86 558.04L327.53 487.37L332.14 506.79L336.75 550.1L341.36 548.02L345.97 559.85L350.58 551.93L369.03 541.71L387.48 546.79L392.09 528.73L396.7 536.08L415.15 525.96L419.76 510.36L424.37 507.83L428.98 492.36L433.59 483.89L442.81 455.99L447.43 442.47L452.04 442.2L456.65 448.29L461.26 467.67L465.87 461.51L470.48 451.09L475.1 449.09L479.71 467.07L484.32 449.9L488.93 476.55L493.54 499.4L498.15 506.08L507.38 503L511.99 530.45L516.6 540.4L539.66 541.09L544.27 532.27L548.88 520.34L553.49 516.91L558.1 535.19L562.71 542.32L567.33 539.04L571.94 539.16L576.55 535.73L581.16 565.68L585.77 555.13L590.38 540.67L594.99 557.77L599.61 564.45L604.22 557.36L608.83 553.98L613.44 565.85L618.05 540.71L622.66 586.41L627.28 585.55L631.89 596.55L636.5 614.74L641.11 656.63L645.72 651.84L650.33 682.72L654.94 681.34L659.56 672.86L664.17 666.34L668.78 651.24L673.39 666.95L678 663.07L682.61 680.16L687.23 666.44L691.84 675.27L696.45 674.15L701.06 660.78L705.67 676.88L710.28 670.48L714.89 671.08L719.51 672.3L724.12 682.99L733.34 674.32L737.95 643.87L742.56 642.36L747.18 671.39L751.79 660.06L756.4 674.85L761.01 670.22L765.62 666.91L770.23 649.47L774.84 652.25L779.46 662.74L784.07 665.28L788.68 680.18L793.29 683.25L797.9 704.86L802.51 767.3L807.13 767.64L811.74 763.54L816.35 791.21L820.96 786.2L825.57 804.83L830.18 794.63L834.79 786.9L839.41 781.52L844.02 796.3L848.63 782.86L853.24 778.46L857.85 777.24L862.46 779.94L867.08 785.4L871.69 789.43L876.3 790.88L880.91 798.31L885.52 803.25L890.13 807.15L894.74 801.13L899.36 797.02L903.97 791.47L908.58 793.82L913.19 781.72L917.8 772.05L922.41 771.1L927.03 784.14L931.64 791.27L940.86 792.4L945.47 784.16L950.08 782.99L954.69 780.33L959.31 781.67L963.92 764.11L968.53 750.88L973.14 751.77L986.97 761.2L991.59 759.99L996.2 774.77L1000.81 777.78L1005.42 757.21L1010.03 744.89L1014.64 743.14L1019.26 747.24L1023.87 751.68L1028.48 752.86L1033.09 757.55L1037.7 757.24L1042.31 761.5L1046.92 753.75L1060.76 740.46L1079.21 747.13L1083.82 740.06L1097.65 746.44L1116.1 783.15L1134.54 777.38L1139.16 775.95L1143.77 790.15L1162.21 794.38L1166.82 794.01L1171.44 792.66L1176.05 793.93L1180.66 797.58L1185.27 797.03L1189.88 796.36L1194.49 808.03L1203.72 803.31L1208.33 774.27L1212.94 767.39L1217.55 776.43L1226.77 772.13L1231.39 789.75L1236 790.33L1245.22 794.66L1249.83 803.67L1254.44 802.94L1259.06 804.69L1263.67 799.87L1272.89 810.32L1300.56 800.12L1319.01 795.33L1328.23 790.88L1369.73 803.78L1415.85 801.72L1420.46 791.44L1485.02 804.4L1489.63 846.77L1494.24 820.16L1498.85 837.51L1512.69 844.65L1521.91 837.89L1544.97 847.37L1563.42 841.54L1747.88 833.82L1793.99 784.02L1812.44 786.6L1821.66 769.09L1844.72 755.82L1867.78 755.25" stroke="#FF0000" stroke-width="2" stroke-miterlimit="2"/>
</g>
<path d="M17.2 1025.91H18.7853V1035.27C18.7853 1036.1 18.6318 1036.81 18.325 1037.4C18.0182 1037.98 17.5857 1038.42 17.0274 1038.73C16.4692 1039.03 15.8108 1039.18 15.0523 1039.18C14.3364 1039.18 13.6993 1039.05 13.1411 1038.79C12.5828 1038.52 12.1439 1038.15 11.8243 1037.66C11.5047 1037.18 11.3449 1036.6 11.3449 1035.93H12.9046C12.9046 1036.3 12.9962 1036.63 13.1794 1036.9C13.3669 1037.18 13.6226 1037.39 13.9465 1037.54C14.2703 1037.7 14.639 1037.77 15.0523 1037.77C15.5083 1037.77 15.8961 1037.68 16.2157 1037.49C16.5353 1037.29 16.7782 1037.01 16.9443 1036.64C17.1148 1036.27 17.2 1035.81 17.2 1035.27V1025.91ZM24.6468 1039.23C24.0246 1039.23 23.46 1039.11 22.9529 1038.88C22.4458 1038.64 22.0431 1038.3 21.7448 1037.85C21.4465 1037.4 21.2973 1036.85 21.2973 1036.21C21.2973 1035.65 21.4081 1035.19 21.6297 1034.85C21.8513 1034.49 22.1475 1034.21 22.5182 1034.01C22.889 1033.81 23.298 1033.66 23.7455 1033.57C24.1972 1033.46 24.651 1033.38 25.107 1033.32C25.7036 1033.25 26.1872 1033.19 26.558 1033.15C26.933 1033.11 27.2057 1033.04 27.3762 1032.94C27.5509 1032.84 27.6382 1032.67 27.6382 1032.43V1032.38C27.6382 1031.75 27.4657 1031.26 27.1205 1030.91C26.7796 1030.56 26.2618 1030.38 25.5672 1030.38C24.847 1030.38 24.2824 1030.54 23.8733 1030.86C23.4642 1031.17 23.1766 1031.51 23.0104 1031.87L21.5786 1031.36C21.8343 1030.76 22.1752 1030.29 22.6013 1029.96C23.0317 1029.62 23.5005 1029.39 24.0076 1029.26C24.5189 1029.12 25.0218 1029.05 25.5161 1029.05C25.8314 1029.05 26.1936 1029.09 26.6027 1029.17C27.0161 1029.24 27.4145 1029.39 27.798 1029.62C28.1858 1029.85 28.5076 1030.2 28.7632 1030.66C29.0189 1031.13 29.1468 1031.75 29.1468 1032.53V1039H27.6382V1037.67H27.5615C27.4593 1037.88 27.2888 1038.11 27.0502 1038.35C26.8115 1038.6 26.4941 1038.8 26.0978 1038.97C25.7015 1039.14 25.2178 1039.23 24.6468 1039.23ZM24.8769 1037.88C25.4735 1037.88 25.9763 1037.76 26.3854 1037.52C26.7988 1037.29 27.1098 1036.99 27.3186 1036.62C27.5317 1036.25 27.6382 1035.86 27.6382 1035.45V1034.07C27.5743 1034.14 27.4337 1034.21 27.2164 1034.28C27.0033 1034.34 26.7561 1034.39 26.4749 1034.44C26.1979 1034.48 25.9273 1034.52 25.6631 1034.55C25.4032 1034.58 25.1922 1034.61 25.0303 1034.63C24.6382 1034.68 24.2718 1034.76 23.9309 1034.88C23.5942 1034.99 23.3215 1035.16 23.1127 1035.38C22.9081 1035.6 22.8059 1035.91 22.8059 1036.29C22.8059 1036.81 22.9997 1037.21 23.3875 1037.48C23.7796 1037.74 24.276 1037.88 24.8769 1037.88ZM33.4087 1033.09V1039H31.9001V1029.18H33.3575V1030.72H33.4854C33.7155 1030.22 34.0649 1029.82 34.5337 1029.51C35.0024 1029.21 35.6075 1029.05 36.349 1029.05C37.0138 1029.05 37.5954 1029.19 38.094 1029.46C38.5926 1029.73 38.9804 1030.14 39.2574 1030.69C39.5344 1031.24 39.6729 1031.93 39.6729 1032.76V1039H38.1643V1032.86C38.1643 1032.09 37.9641 1031.49 37.5635 1031.06C37.1629 1030.63 36.6132 1030.41 35.9143 1030.41C35.4328 1030.41 35.0024 1030.51 34.6231 1030.72C34.2481 1030.93 33.952 1031.24 33.7347 1031.64C33.5173 1032.04 33.4087 1032.52 33.4087 1033.09ZM47.4664 1039V1037.85L51.7874 1033.12C52.2945 1032.57 52.7121 1032.08 53.0402 1031.67C53.3684 1031.26 53.6113 1030.87 53.7689 1030.51C53.9309 1030.14 54.0118 1029.76 54.0118 1029.36C54.0118 1028.9 53.901 1028.5 53.6794 1028.17C53.4621 1027.83 53.1638 1027.57 52.7845 1027.39C52.4053 1027.2 51.9791 1027.11 51.5061 1027.11C51.0033 1027.11 50.5644 1027.22 50.1894 1027.42C49.8186 1027.63 49.531 1027.92 49.3265 1028.29C49.1262 1028.66 49.026 1029.09 49.026 1029.59H47.5175C47.5175 1028.82 47.6943 1028.15 48.048 1027.57C48.4017 1026.99 48.8833 1026.54 49.4926 1026.22C50.1063 1025.89 50.7945 1025.73 51.5573 1025.73C52.3243 1025.73 53.004 1025.89 53.5963 1026.22C54.1887 1026.54 54.6532 1026.98 54.9898 1027.53C55.3265 1028.08 55.4948 1028.69 55.4948 1029.36C55.4948 1029.84 55.4074 1030.31 55.2327 1030.77C55.0622 1031.23 54.764 1031.74 54.3378 1032.3C53.9159 1032.86 53.33 1033.54 52.58 1034.35L49.6397 1037.49V1037.59H55.7249V1039H47.4664ZM62.6347 1039.18C61.6716 1039.18 60.8513 1038.92 60.1738 1038.39C59.4962 1037.86 58.9784 1037.1 58.6205 1036.1C58.2625 1035.09 58.0836 1033.88 58.0836 1032.45C58.0836 1031.04 58.2625 1029.83 58.6205 1028.83C58.9827 1027.82 59.5026 1027.06 60.1801 1026.53C60.862 1026 61.6801 1025.73 62.6347 1025.73C63.5892 1025.73 64.4053 1026 65.0828 1026.53C65.7647 1027.06 66.2845 1027.82 66.6425 1028.83C67.0047 1029.83 67.1858 1031.04 67.1858 1032.45C67.1858 1033.88 67.0068 1035.09 66.6489 1036.1C66.2909 1037.1 65.7732 1037.86 65.0956 1038.39C64.4181 1038.92 63.5978 1039.18 62.6347 1039.18ZM62.6347 1037.77C63.5892 1037.77 64.3307 1037.31 64.8591 1036.39C65.3875 1035.47 65.6517 1034.16 65.6517 1032.45C65.6517 1031.32 65.5303 1030.36 65.2874 1029.56C65.0488 1028.76 64.7036 1028.15 64.2519 1027.74C63.8044 1027.32 63.2654 1027.11 62.6347 1027.11C61.6887 1027.11 60.9493 1027.58 60.4166 1028.51C59.884 1029.44 59.6176 1030.75 59.6176 1032.45C59.6176 1033.59 59.737 1034.55 59.9756 1035.34C60.2142 1036.14 60.5573 1036.74 61.0047 1037.15C61.4564 1037.57 61.9997 1037.77 62.6347 1037.77ZM69.6148 1039V1037.85L73.9358 1033.12C74.4429 1032.57 74.8605 1032.08 75.1887 1031.67C75.5168 1031.26 75.7597 1030.87 75.9174 1030.51C76.0793 1030.14 76.1603 1029.76 76.1603 1029.36C76.1603 1028.9 76.0495 1028.5 75.8279 1028.17C75.6105 1027.83 75.3122 1027.57 74.933 1027.39C74.5537 1027.2 74.1276 1027.11 73.6546 1027.11C73.1517 1027.11 72.7128 1027.22 72.3378 1027.42C71.9671 1027.63 71.6794 1027.92 71.4749 1028.29C71.2746 1028.66 71.1745 1029.09 71.1745 1029.59H69.6659C69.6659 1028.82 69.8428 1028.15 70.1965 1027.57C70.5502 1026.99 71.0317 1026.54 71.6411 1026.22C72.2547 1025.89 72.9429 1025.73 73.7057 1025.73C74.4728 1025.73 75.1524 1025.89 75.7448 1026.22C76.3371 1026.54 76.8016 1026.98 77.1382 1027.53C77.4749 1028.08 77.6432 1028.69 77.6432 1029.36C77.6432 1029.84 77.5559 1030.31 77.3811 1030.77C77.2107 1031.23 76.9124 1031.74 76.4863 1032.3C76.0644 1032.86 75.4784 1033.54 74.7284 1034.35L71.7881 1037.49V1037.59H77.8733V1039H69.6148ZM80.5132 1039V1037.85L84.8343 1033.12C85.3414 1032.57 85.759 1032.08 86.0871 1031.67C86.4152 1031.26 86.6581 1030.87 86.8158 1030.51C86.9777 1030.14 87.0587 1029.76 87.0587 1029.36C87.0587 1028.9 86.9479 1028.5 86.7263 1028.17C86.509 1027.83 86.2107 1027.57 85.8314 1027.39C85.4522 1027.2 85.026 1027.11 84.553 1027.11C84.0502 1027.11 83.6113 1027.22 83.2363 1027.42C82.8655 1027.63 82.5779 1027.92 82.3733 1028.29C82.173 1028.66 82.0729 1029.09 82.0729 1029.59H80.5644C80.5644 1028.82 80.7412 1028.15 81.0949 1027.57C81.4486 1026.99 81.9301 1026.54 82.5395 1026.22C83.1532 1025.89 83.8414 1025.73 84.6041 1025.73C85.3712 1025.73 86.0509 1025.89 86.6432 1026.22C87.2355 1026.54 87.7 1026.98 88.0367 1027.53C88.3733 1028.08 88.5416 1028.69 88.5416 1029.36C88.5416 1029.84 88.4543 1030.31 88.2796 1030.77C88.1091 1031.23 87.8108 1031.74 87.3847 1032.3C86.9628 1032.86 86.3769 1033.54 85.6269 1034.35L82.6865 1037.49V1037.59H88.7718V1039H80.5132Z" fill="white"/>
<path d="M283.065 1025.91H284.957L289.405 1036.78H289.559L294.008 1025.91H295.9V1039H294.417V1029.05H294.289L290.198 1039H288.766L284.675 1029.05H284.548V1039H283.065V1025.91ZM301.763 1039.23C301.141 1039.23 300.576 1039.11 300.069 1038.88C299.562 1038.64 299.159 1038.3 298.861 1037.85C298.563 1037.4 298.413 1036.85 298.413 1036.21C298.413 1035.65 298.524 1035.19 298.746 1034.85C298.967 1034.49 299.264 1034.21 299.634 1034.01C300.005 1033.81 300.414 1033.66 300.862 1033.57C301.313 1033.46 301.767 1033.38 302.223 1033.32C302.82 1033.25 303.303 1033.19 303.674 1033.15C304.049 1033.11 304.322 1033.04 304.492 1032.94C304.667 1032.84 304.754 1032.67 304.754 1032.43V1032.38C304.754 1031.75 304.582 1031.26 304.237 1030.91C303.896 1030.56 303.378 1030.38 302.683 1030.38C301.963 1030.38 301.399 1030.54 300.989 1030.86C300.58 1031.17 300.293 1031.51 300.127 1031.87L298.695 1031.36C298.95 1030.76 299.291 1030.29 299.717 1029.96C300.148 1029.62 300.617 1029.39 301.124 1029.26C301.635 1029.12 302.138 1029.05 302.632 1029.05C302.948 1029.05 303.31 1029.09 303.719 1029.17C304.132 1029.24 304.531 1029.39 304.914 1029.62C305.302 1029.85 305.624 1030.2 305.879 1030.66C306.135 1031.13 306.263 1031.75 306.263 1032.53V1039H304.754V1037.67H304.678C304.575 1037.88 304.405 1038.11 304.166 1038.35C303.928 1038.6 303.61 1038.8 303.214 1038.97C302.818 1039.14 302.334 1039.23 301.763 1039.23ZM301.993 1037.88C302.59 1037.88 303.092 1037.76 303.502 1037.52C303.915 1037.29 304.226 1036.99 304.435 1036.62C304.648 1036.25 304.754 1035.86 304.754 1035.45V1034.07C304.69 1034.14 304.55 1034.21 304.333 1034.28C304.119 1034.34 303.872 1034.39 303.591 1034.44C303.314 1034.48 303.043 1034.52 302.779 1034.55C302.519 1034.58 302.308 1034.61 302.146 1034.63C301.754 1034.68 301.388 1034.76 301.047 1034.88C300.71 1034.99 300.438 1035.16 300.229 1035.38C300.024 1035.6 299.922 1035.91 299.922 1036.29C299.922 1036.81 300.116 1037.21 300.504 1037.48C300.896 1037.74 301.392 1037.88 301.993 1037.88ZM309.016 1039V1029.18H310.474V1030.66H310.576C310.755 1030.18 311.079 1029.78 311.548 1029.48C312.016 1029.18 312.545 1029.03 313.133 1029.03C313.244 1029.03 313.382 1029.03 313.548 1029.03C313.714 1029.04 313.84 1029.05 313.925 1029.05V1030.59C313.874 1030.58 313.757 1030.56 313.574 1030.53C313.395 1030.5 313.205 1030.49 313.005 1030.49C312.528 1030.49 312.102 1030.59 311.727 1030.79C311.356 1030.98 311.062 1031.25 310.844 1031.6C310.631 1031.95 310.525 1032.34 310.525 1032.79V1039H309.016ZM320.75 1039V1037.85L325.072 1033.12C325.579 1032.57 325.996 1032.08 326.324 1031.67C326.652 1031.26 326.895 1030.87 327.053 1030.51C327.215 1030.14 327.296 1029.76 327.296 1029.36C327.296 1028.9 327.185 1028.5 326.964 1028.17C326.746 1027.83 326.448 1027.57 326.069 1027.39C325.689 1027.2 325.263 1027.11 324.79 1027.11C324.287 1027.11 323.848 1027.22 323.473 1027.42C323.103 1027.63 322.815 1027.92 322.611 1028.29C322.41 1028.66 322.31 1029.09 322.31 1029.59H320.802C320.802 1028.82 320.978 1028.15 321.332 1027.57C321.686 1026.99 322.167 1026.54 322.777 1026.22C323.39 1025.89 324.079 1025.73 324.841 1025.73C325.608 1025.73 326.288 1025.89 326.88 1026.22C327.473 1026.54 327.937 1026.98 328.274 1027.53C328.611 1028.08 328.779 1028.69 328.779 1029.36C328.779 1029.84 328.692 1030.31 328.517 1030.77C328.346 1031.23 328.048 1031.74 327.622 1032.3C327.2 1032.86 326.614 1033.54 325.864 1034.35L322.924 1037.49V1037.59H329.009V1039H320.75ZM335.919 1039.18C334.956 1039.18 334.135 1038.92 333.458 1038.39C332.78 1037.86 332.263 1037.1 331.905 1036.1C331.547 1035.09 331.368 1033.88 331.368 1032.45C331.368 1031.04 331.547 1029.83 331.905 1028.83C332.267 1027.82 332.787 1027.06 333.464 1026.53C334.146 1026 334.964 1025.73 335.919 1025.73C336.873 1025.73 337.689 1026 338.367 1026.53C339.049 1027.06 339.569 1027.82 339.927 1028.83C340.289 1029.83 340.47 1031.04 340.47 1032.45C340.47 1033.88 340.291 1035.09 339.933 1036.1C339.575 1037.1 339.057 1037.86 338.38 1038.39C337.702 1038.92 336.882 1039.18 335.919 1039.18ZM335.919 1037.77C336.873 1037.77 337.615 1037.31 338.143 1036.39C338.672 1035.47 338.936 1034.16 338.936 1032.45C338.936 1031.32 338.814 1030.36 338.572 1029.56C338.333 1028.76 337.988 1028.15 337.536 1027.74C337.089 1027.32 336.549 1027.11 335.919 1027.11C334.973 1027.11 334.233 1027.58 333.701 1028.51C333.168 1029.44 332.902 1030.75 332.902 1032.45C332.902 1033.59 333.021 1034.55 333.26 1035.34C333.498 1036.14 333.841 1036.74 334.289 1037.15C334.741 1037.57 335.284 1037.77 335.919 1037.77ZM342.899 1039V1037.85L347.22 1033.12C347.727 1032.57 348.145 1032.08 348.473 1031.67C348.801 1031.26 349.044 1030.87 349.201 1030.51C349.363 1030.14 349.444 1029.76 349.444 1029.36C349.444 1028.9 349.334 1028.5 349.112 1028.17C348.895 1027.83 348.596 1027.57 348.217 1027.39C347.838 1027.2 347.412 1027.11 346.939 1027.11C346.436 1027.11 345.997 1027.22 345.622 1027.42C345.251 1027.63 344.964 1027.92 344.759 1028.29C344.559 1028.66 344.459 1029.09 344.459 1029.59H342.95C342.95 1028.82 343.127 1028.15 343.481 1027.57C343.834 1026.99 344.316 1026.54 344.925 1026.22C345.539 1025.89 346.227 1025.73 346.99 1025.73C347.757 1025.73 348.437 1025.89 349.029 1026.22C349.621 1026.54 350.086 1026.98 350.422 1027.53C350.759 1028.08 350.927 1028.69 350.927 1029.36C350.927 1029.84 350.84 1030.31 350.665 1030.77C350.495 1031.23 350.197 1031.74 349.77 1032.3C349.348 1032.86 348.763 1033.54 348.013 1034.35L345.072 1037.49V1037.59H351.157V1039H342.899ZM353.797 1039V1037.85L358.118 1033.12C358.625 1032.57 359.043 1032.08 359.371 1031.67C359.699 1031.26 359.942 1030.87 360.1 1030.51C360.262 1030.14 360.343 1029.76 360.343 1029.36C360.343 1028.9 360.232 1028.5 360.01 1028.17C359.793 1027.83 359.495 1027.57 359.116 1027.39C358.736 1027.2 358.31 1027.11 357.837 1027.11C357.334 1027.11 356.895 1027.22 356.52 1027.42C356.15 1027.63 355.862 1027.92 355.657 1028.29C355.457 1028.66 355.357 1029.09 355.357 1029.59H353.848C353.848 1028.82 354.025 1028.15 354.379 1027.57C354.733 1026.99 355.214 1026.54 355.824 1026.22C356.437 1025.89 357.125 1025.73 357.888 1025.73C358.655 1025.73 359.335 1025.89 359.927 1026.22C360.52 1026.54 360.984 1026.98 361.321 1027.53C361.657 1028.08 361.826 1028.69 361.826 1029.36C361.826 1029.84 361.738 1030.31 361.564 1030.77C361.393 1031.23 361.095 1031.74 360.669 1032.3C360.247 1032.86 359.661 1033.54 358.911 1034.35L355.971 1037.49V1037.59H362.056V1039H353.797Z" fill="white"/>
<path d="M563.389 1025.91H565.281L569.73 1036.78H569.884L574.332 1025.91H576.224V1039H574.741V1029.05H574.614L570.523 1039H569.091L565 1029.05H564.872V1039H563.389V1025.91ZM582.088 1039.23C581.465 1039.23 580.901 1039.11 580.394 1038.88C579.887 1038.64 579.484 1038.3 579.186 1037.85C578.887 1037.4 578.738 1036.85 578.738 1036.21C578.738 1035.65 578.849 1035.19 579.07 1034.85C579.292 1034.49 579.588 1034.21 579.959 1034.01C580.33 1033.81 580.739 1033.66 581.186 1033.57C581.638 1033.46 582.092 1033.38 582.548 1033.32C583.144 1033.25 583.628 1033.19 583.999 1033.15C584.374 1033.11 584.646 1033.04 584.817 1032.94C584.992 1032.84 585.079 1032.67 585.079 1032.43V1032.38C585.079 1031.75 584.906 1031.26 584.561 1030.91C584.22 1030.56 583.703 1030.38 583.008 1030.38C582.288 1030.38 581.723 1030.54 581.314 1030.86C580.905 1031.17 580.617 1031.51 580.451 1031.87L579.019 1031.36C579.275 1030.76 579.616 1030.29 580.042 1029.96C580.472 1029.62 580.941 1029.39 581.448 1029.26C581.96 1029.12 582.463 1029.05 582.957 1029.05C583.272 1029.05 583.634 1029.09 584.043 1029.17C584.457 1029.24 584.855 1029.39 585.239 1029.62C585.627 1029.85 585.948 1030.2 586.204 1030.66C586.46 1031.13 586.588 1031.75 586.588 1032.53V1039H585.079V1037.67H585.002C584.9 1037.88 584.73 1038.11 584.491 1038.35C584.252 1038.6 583.935 1038.8 583.539 1038.97C583.142 1039.14 582.659 1039.23 582.088 1039.23ZM582.318 1037.88C582.914 1037.88 583.417 1037.76 583.826 1037.52C584.24 1037.29 584.551 1036.99 584.759 1036.62C584.972 1036.25 585.079 1035.86 585.079 1035.45V1034.07C585.015 1034.14 584.874 1034.21 584.657 1034.28C584.444 1034.34 584.197 1034.39 583.916 1034.44C583.639 1034.48 583.368 1034.52 583.104 1034.55C582.844 1034.58 582.633 1034.61 582.471 1034.63C582.079 1034.68 581.713 1034.76 581.372 1034.88C581.035 1034.99 580.762 1035.16 580.553 1035.38C580.349 1035.6 580.247 1035.91 580.247 1036.29C580.247 1036.81 580.44 1037.21 580.828 1037.48C581.22 1037.74 581.717 1037.88 582.318 1037.88ZM589.961 1042.68C589.705 1042.68 589.477 1042.66 589.277 1042.62C589.077 1042.58 588.938 1042.54 588.861 1042.5L589.245 1041.17C589.611 1041.27 589.935 1041.3 590.217 1041.28C590.498 1041.25 590.747 1041.12 590.964 1040.9C591.186 1040.68 591.388 1040.32 591.572 1039.82L591.853 1039.05L588.222 1029.18H589.859L592.569 1037.01H592.671L595.381 1029.18H597.018L592.85 1040.43C592.663 1040.94 592.43 1041.36 592.153 1041.69C591.876 1042.03 591.555 1042.28 591.188 1042.44C590.826 1042.6 590.417 1042.68 589.961 1042.68ZM604.046 1039V1037.85L608.367 1033.12C608.874 1032.57 609.292 1032.08 609.62 1031.67C609.948 1031.26 610.191 1030.87 610.348 1030.51C610.51 1030.14 610.591 1029.76 610.591 1029.36C610.591 1028.9 610.48 1028.5 610.259 1028.17C610.042 1027.83 609.743 1027.57 609.364 1027.39C608.985 1027.2 608.559 1027.11 608.086 1027.11C607.583 1027.11 607.144 1027.22 606.769 1027.42C606.398 1027.63 606.11 1027.92 605.906 1028.29C605.706 1028.66 605.605 1029.09 605.605 1029.59H604.097C604.097 1028.82 604.274 1028.15 604.627 1027.57C604.981 1026.99 605.463 1026.54 606.072 1026.22C606.686 1025.89 607.374 1025.73 608.137 1025.73C608.904 1025.73 609.583 1025.89 610.176 1026.22C610.768 1026.54 611.233 1026.98 611.569 1027.53C611.906 1028.08 612.074 1028.69 612.074 1029.36C612.074 1029.84 611.987 1030.31 611.812 1030.77C611.642 1031.23 611.343 1031.74 610.917 1032.3C610.495 1032.86 609.909 1033.54 609.159 1034.35L606.219 1037.49V1037.59H612.304V1039H604.046ZM619.214 1039.18C618.251 1039.18 617.431 1038.92 616.753 1038.39C616.076 1037.86 615.558 1037.1 615.2 1036.1C614.842 1035.09 614.663 1033.88 614.663 1032.45C614.663 1031.04 614.842 1029.83 615.2 1028.83C615.562 1027.82 616.082 1027.06 616.76 1026.53C617.441 1026 618.26 1025.73 619.214 1025.73C620.169 1025.73 620.985 1026 621.662 1026.53C622.344 1027.06 622.864 1027.82 623.222 1028.83C623.584 1029.83 623.765 1031.04 623.765 1032.45C623.765 1033.88 623.586 1035.09 623.228 1036.1C622.87 1037.1 622.353 1037.86 621.675 1038.39C620.997 1038.92 620.177 1039.18 619.214 1039.18ZM619.214 1037.77C620.169 1037.77 620.91 1037.31 621.439 1036.39C621.967 1035.47 622.231 1034.16 622.231 1032.45C622.231 1031.32 622.11 1030.36 621.867 1029.56C621.628 1028.76 621.283 1028.15 620.831 1027.74C620.384 1027.32 619.845 1027.11 619.214 1027.11C618.268 1027.11 617.529 1027.58 616.996 1028.51C616.463 1029.44 616.197 1030.75 616.197 1032.45C616.197 1033.59 616.316 1034.55 616.555 1035.34C616.794 1036.14 617.137 1036.74 617.584 1037.15C618.036 1037.57 618.579 1037.77 619.214 1037.77ZM626.194 1039V1037.85L630.515 1033.12C631.022 1032.57 631.44 1032.08 631.768 1031.67C632.096 1031.26 632.339 1030.87 632.497 1030.51C632.659 1030.14 632.74 1029.76 632.74 1029.36C632.74 1028.9 632.629 1028.5 632.407 1028.17C632.19 1027.83 631.892 1027.57 631.512 1027.39C631.133 1027.2 630.707 1027.11 630.234 1027.11C629.731 1027.11 629.292 1027.22 628.917 1027.42C628.546 1027.63 628.259 1027.92 628.054 1028.29C627.854 1028.66 627.754 1029.09 627.754 1029.59H626.245C626.245 1028.82 626.422 1028.15 626.776 1027.57C627.13 1026.99 627.611 1026.54 628.221 1026.22C628.834 1025.89 629.522 1025.73 630.285 1025.73C631.052 1025.73 631.732 1025.89 632.324 1026.22C632.917 1026.54 633.381 1026.98 633.718 1027.53C634.054 1028.08 634.223 1028.69 634.223 1029.36C634.223 1029.84 634.135 1030.31 633.961 1030.77C633.79 1031.23 633.492 1031.74 633.066 1032.3C632.644 1032.86 632.058 1033.54 631.308 1034.35L628.368 1037.49V1037.59H634.453V1039H626.194ZM637.093 1039V1037.85L641.414 1033.12C641.921 1032.57 642.338 1032.08 642.667 1031.67C642.995 1031.26 643.238 1030.87 643.395 1030.51C643.557 1030.14 643.638 1029.76 643.638 1029.36C643.638 1028.9 643.527 1028.5 643.306 1028.17C643.088 1027.83 642.79 1027.57 642.411 1027.39C642.032 1027.2 641.605 1027.11 641.132 1027.11C640.63 1027.11 640.191 1027.22 639.816 1027.42C639.445 1027.63 639.157 1027.92 638.953 1028.29C638.752 1028.66 638.652 1029.09 638.652 1029.59H637.144C637.144 1028.82 637.321 1028.15 637.674 1027.57C638.028 1026.99 638.51 1026.54 639.119 1026.22C639.733 1025.89 640.421 1025.73 641.184 1025.73C641.951 1025.73 642.63 1025.89 643.223 1026.22C643.815 1026.54 644.279 1026.98 644.616 1027.53C644.953 1028.08 645.121 1028.69 645.121 1029.36C645.121 1029.84 645.034 1030.31 644.859 1030.77C644.689 1031.23 644.39 1031.74 643.964 1032.3C643.542 1032.86 642.956 1033.54 642.206 1034.35L639.266 1037.49V1037.59H645.351V1039H637.093Z" fill="white"/>
<path d="M855.361 1025.91H856.946V1035.27C856.946 1036.1 856.793 1036.81 856.486 1037.4C856.179 1037.98 855.746 1038.42 855.188 1038.73C854.63 1039.03 853.972 1039.18 853.213 1039.18C852.497 1039.18 851.86 1039.05 851.302 1038.79C850.744 1038.52 850.305 1038.15 849.985 1037.66C849.665 1037.18 849.506 1036.6 849.506 1035.93H851.065C851.065 1036.3 851.157 1036.63 851.34 1036.9C851.528 1037.18 851.783 1037.39 852.107 1037.54C852.431 1037.7 852.8 1037.77 853.213 1037.77C853.669 1037.77 854.057 1037.68 854.376 1037.49C854.696 1037.29 854.939 1037.01 855.105 1036.64C855.276 1036.27 855.361 1035.81 855.361 1035.27V1025.91ZM866.106 1034.99V1029.18H867.614V1039H866.106V1037.34H866.004C865.773 1037.84 865.415 1038.26 864.93 1038.61C864.444 1038.96 863.83 1039.13 863.089 1039.13C862.475 1039.13 861.93 1038.99 861.452 1038.73C860.975 1038.45 860.6 1038.04 860.327 1037.5C860.055 1036.95 859.918 1036.26 859.918 1035.42V1029.18H861.427V1035.32C861.427 1036.03 861.627 1036.61 862.028 1037.03C862.432 1037.46 862.948 1037.67 863.575 1037.67C863.95 1037.67 864.331 1037.57 864.719 1037.38C865.111 1037.19 865.439 1036.9 865.703 1036.5C865.972 1036.1 866.106 1035.6 866.106 1034.99ZM871.886 1025.91V1039H870.377V1025.91H871.886ZM879.686 1039V1037.85L884.007 1033.12C884.514 1032.57 884.931 1032.08 885.26 1031.67C885.588 1031.26 885.831 1030.87 885.988 1030.51C886.15 1030.14 886.231 1029.76 886.231 1029.36C886.231 1028.9 886.12 1028.5 885.899 1028.17C885.681 1027.83 885.383 1027.57 885.004 1027.39C884.625 1027.2 884.198 1027.11 883.725 1027.11C883.223 1027.11 882.784 1027.22 882.409 1027.42C882.038 1027.63 881.75 1027.92 881.546 1028.29C881.345 1028.66 881.245 1029.09 881.245 1029.59H879.737C879.737 1028.82 879.914 1028.15 880.267 1027.57C880.621 1026.99 881.103 1026.54 881.712 1026.22C882.326 1025.89 883.014 1025.73 883.777 1025.73C884.544 1025.73 885.223 1025.89 885.816 1026.22C886.408 1026.54 886.872 1026.98 887.209 1027.53C887.546 1028.08 887.714 1028.69 887.714 1029.36C887.714 1029.84 887.627 1030.31 887.452 1030.77C887.282 1031.23 886.983 1031.74 886.557 1032.3C886.135 1032.86 885.549 1033.54 884.799 1034.35L881.859 1037.49V1037.59H887.944V1039H879.686ZM894.854 1039.18C893.891 1039.18 893.071 1038.92 892.393 1038.39C891.716 1037.86 891.198 1037.1 890.84 1036.1C890.482 1035.09 890.303 1033.88 890.303 1032.45C890.303 1031.04 890.482 1029.83 890.84 1028.83C891.202 1027.82 891.722 1027.06 892.399 1026.53C893.081 1026 893.899 1025.73 894.854 1025.73C895.809 1025.73 896.625 1026 897.302 1026.53C897.984 1027.06 898.504 1027.82 898.862 1028.83C899.224 1029.83 899.405 1031.04 899.405 1032.45C899.405 1033.88 899.226 1035.09 898.868 1036.1C898.51 1037.1 897.992 1037.86 897.315 1038.39C896.637 1038.92 895.817 1039.18 894.854 1039.18ZM894.854 1037.77C895.809 1037.77 896.55 1037.31 897.078 1036.39C897.607 1035.47 897.871 1034.16 897.871 1032.45C897.871 1031.32 897.75 1030.36 897.507 1029.56C897.268 1028.76 896.923 1028.15 896.471 1027.74C896.024 1027.32 895.485 1027.11 894.854 1027.11C893.908 1027.11 893.169 1027.58 892.636 1028.51C892.103 1029.44 891.837 1030.75 891.837 1032.45C891.837 1033.59 891.956 1034.55 892.195 1035.34C892.434 1036.14 892.777 1036.74 893.224 1037.15C893.676 1037.57 894.219 1037.77 894.854 1037.77ZM901.834 1039V1037.85L906.155 1033.12C906.662 1032.57 907.08 1032.08 907.408 1031.67C907.736 1031.26 907.979 1030.87 908.137 1030.51C908.299 1030.14 908.38 1029.76 908.38 1029.36C908.38 1028.9 908.269 1028.5 908.047 1028.17C907.83 1027.83 907.532 1027.57 907.152 1027.39C906.773 1027.2 906.347 1027.11 905.874 1027.11C905.371 1027.11 904.932 1027.22 904.557 1027.42C904.186 1027.63 903.899 1027.92 903.694 1028.29C903.494 1028.66 903.394 1029.09 903.394 1029.59H901.885C901.885 1028.82 902.062 1028.15 902.416 1027.57C902.769 1026.99 903.251 1026.54 903.86 1026.22C904.474 1025.89 905.162 1025.73 905.925 1025.73C906.692 1025.73 907.372 1025.89 907.964 1026.22C908.556 1026.54 909.021 1026.98 909.358 1027.53C909.694 1028.08 909.863 1028.69 909.863 1029.36C909.863 1029.84 909.775 1030.31 909.6 1030.77C909.43 1031.23 909.132 1031.74 908.706 1032.3C908.284 1032.86 907.698 1033.54 906.948 1034.35L904.007 1037.49V1037.59H910.093V1039H901.834ZM912.733 1039V1037.85L917.054 1033.12C917.561 1032.57 917.978 1032.08 918.306 1031.67C918.635 1031.26 918.877 1030.87 919.035 1030.51C919.197 1030.14 919.278 1029.76 919.278 1029.36C919.278 1028.9 919.167 1028.5 918.946 1028.17C918.728 1027.83 918.43 1027.57 918.051 1027.39C917.671 1027.2 917.245 1027.11 916.772 1027.11C916.269 1027.11 915.831 1027.22 915.456 1027.42C915.085 1027.63 914.797 1027.92 914.593 1028.29C914.392 1028.66 914.292 1029.09 914.292 1029.59H912.784C912.784 1028.82 912.961 1028.15 913.314 1027.57C913.668 1026.99 914.149 1026.54 914.759 1026.22C915.372 1025.89 916.061 1025.73 916.823 1025.73C917.591 1025.73 918.27 1025.89 918.863 1026.22C919.455 1026.54 919.919 1026.98 920.256 1027.53C920.593 1028.08 920.761 1028.69 920.761 1029.36C920.761 1029.84 920.674 1030.31 920.499 1030.77C920.328 1031.23 920.03 1031.74 919.604 1032.3C919.182 1032.86 918.596 1033.54 917.846 1034.35L914.906 1037.49V1037.59H920.991V1039H912.733Z" fill="white"/>
<path d="M1138.72 1029.18C1138.64 1028.53 1138.33 1028.03 1137.79 1027.67C1137.24 1027.32 1136.57 1027.14 1135.78 1027.14C1135.2 1027.14 1134.69 1027.23 1134.26 1027.42C1133.83 1027.61 1133.49 1027.86 1133.25 1028.19C1133.01 1028.52 1132.89 1028.89 1132.89 1029.31C1132.89 1029.66 1132.97 1029.96 1133.14 1030.21C1133.31 1030.46 1133.53 1030.66 1133.79 1030.83C1134.05 1030.99 1134.33 1031.13 1134.62 1031.23C1134.91 1031.34 1135.18 1031.42 1135.42 1031.48L1136.75 1031.84C1137.09 1031.93 1137.47 1032.05 1137.89 1032.21C1138.31 1032.37 1138.71 1032.58 1139.1 1032.86C1139.48 1033.13 1139.8 1033.47 1140.05 1033.89C1140.31 1034.31 1140.43 1034.83 1140.43 1035.45C1140.43 1036.15 1140.25 1036.79 1139.88 1037.36C1139.51 1037.93 1138.97 1038.39 1138.26 1038.73C1137.56 1039.06 1136.71 1039.23 1135.7 1039.23C1134.76 1039.23 1133.95 1039.08 1133.27 1038.78C1132.58 1038.47 1132.05 1038.05 1131.66 1037.51C1131.27 1036.97 1131.05 1036.34 1131 1035.62H1132.63C1132.68 1036.12 1132.84 1036.53 1133.13 1036.85C1133.43 1037.17 1133.8 1037.41 1134.24 1037.57C1134.7 1037.72 1135.18 1037.8 1135.7 1037.8C1136.31 1037.8 1136.85 1037.7 1137.33 1037.5C1137.81 1037.3 1138.19 1037.03 1138.48 1036.67C1138.76 1036.32 1138.9 1035.9 1138.9 1035.42C1138.9 1034.99 1138.78 1034.63 1138.53 1034.36C1138.29 1034.09 1137.97 1033.87 1137.57 1033.69C1137.18 1033.52 1136.75 1033.37 1136.29 1033.25L1134.68 1032.79C1133.66 1032.49 1132.85 1032.07 1132.25 1031.53C1131.65 1030.98 1131.35 1030.27 1131.35 1029.39C1131.35 1028.65 1131.55 1028.01 1131.95 1027.47C1132.35 1026.92 1132.89 1026.49 1133.56 1026.19C1134.24 1025.88 1134.99 1025.73 1135.83 1025.73C1136.67 1025.73 1137.42 1025.88 1138.08 1026.18C1138.74 1026.48 1139.26 1026.89 1139.64 1027.41C1140.03 1027.93 1140.23 1028.52 1140.25 1029.18H1138.72ZM1146.95 1039.2C1146 1039.2 1145.19 1039 1144.5 1038.58C1143.82 1038.16 1143.29 1037.57 1142.92 1036.81C1142.56 1036.06 1142.37 1035.17 1142.37 1034.17C1142.37 1033.16 1142.56 1032.28 1142.92 1031.51C1143.29 1030.74 1143.81 1030.14 1144.47 1029.71C1145.13 1029.27 1145.91 1029.05 1146.8 1029.05C1147.31 1029.05 1147.81 1029.14 1148.31 1029.31C1148.81 1029.48 1149.26 1029.76 1149.67 1030.14C1150.08 1030.52 1150.41 1031.02 1150.65 1031.65C1150.89 1032.28 1151.02 1033.05 1151.02 1033.96V1034.6H1143.45V1033.3H1149.48C1149.48 1032.74 1149.37 1032.25 1149.15 1031.82C1148.93 1031.38 1148.62 1031.04 1148.22 1030.79C1147.81 1030.53 1147.34 1030.41 1146.8 1030.41C1146.2 1030.41 1145.68 1030.56 1145.24 1030.86C1144.8 1031.15 1144.47 1031.53 1144.23 1032.01C1144 1032.48 1143.88 1032.99 1143.88 1033.53V1034.4C1143.88 1035.14 1144.01 1035.77 1144.27 1036.28C1144.53 1036.79 1144.89 1037.18 1145.35 1037.45C1145.81 1037.72 1146.34 1037.85 1146.95 1037.85C1147.35 1037.85 1147.7 1037.79 1148.02 1037.68C1148.35 1037.57 1148.63 1037.4 1148.86 1037.17C1149.1 1036.94 1149.28 1036.66 1149.4 1036.32L1150.86 1036.72C1150.71 1037.22 1150.45 1037.65 1150.09 1038.03C1149.73 1038.4 1149.28 1038.69 1148.75 1038.9C1148.21 1039.1 1147.61 1039.2 1146.95 1039.2ZM1153.31 1042.68V1029.18H1154.77V1030.74H1154.95C1155.06 1030.57 1155.21 1030.35 1155.41 1030.09C1155.61 1029.82 1155.89 1029.58 1156.26 1029.37C1156.64 1029.16 1157.15 1029.05 1157.78 1029.05C1158.61 1029.05 1159.34 1029.26 1159.97 1029.67C1160.6 1030.09 1161.09 1030.67 1161.45 1031.43C1161.8 1032.19 1161.98 1033.09 1161.98 1034.12C1161.98 1035.16 1161.8 1036.06 1161.45 1036.82C1161.09 1037.58 1160.6 1038.17 1159.98 1038.58C1159.35 1039 1158.63 1039.2 1157.81 1039.2C1157.18 1039.2 1156.67 1039.1 1156.29 1038.89C1155.92 1038.68 1155.62 1038.44 1155.42 1038.17C1155.21 1037.9 1155.06 1037.67 1154.95 1037.49H1154.82V1042.68H1153.31ZM1154.79 1034.09C1154.79 1034.83 1154.9 1035.49 1155.12 1036.05C1155.34 1036.62 1155.65 1037.06 1156.07 1037.38C1156.49 1037.69 1157 1037.85 1157.61 1037.85C1158.24 1037.85 1158.76 1037.68 1159.18 1037.35C1159.61 1037.01 1159.93 1036.56 1160.14 1036C1160.36 1035.42 1160.47 1034.79 1160.47 1034.09C1160.47 1033.4 1160.36 1032.78 1160.15 1032.22C1159.94 1031.67 1159.62 1031.23 1159.2 1030.9C1158.78 1030.57 1158.24 1030.41 1157.61 1030.41C1156.99 1030.41 1156.48 1030.56 1156.06 1030.88C1155.64 1031.18 1155.33 1031.61 1155.11 1032.17C1154.9 1032.72 1154.79 1033.36 1154.79 1034.09ZM1169.32 1039V1037.85L1173.64 1033.12C1174.14 1032.57 1174.56 1032.08 1174.89 1031.67C1175.22 1031.26 1175.46 1030.87 1175.62 1030.51C1175.78 1030.14 1175.86 1029.76 1175.86 1029.36C1175.86 1028.9 1175.75 1028.5 1175.53 1028.17C1175.31 1027.83 1175.01 1027.57 1174.63 1027.39C1174.25 1027.2 1173.83 1027.11 1173.36 1027.11C1172.85 1027.11 1172.41 1027.22 1172.04 1027.42C1171.67 1027.63 1171.38 1027.92 1171.18 1028.29C1170.98 1028.66 1170.88 1029.09 1170.88 1029.59H1169.37C1169.37 1028.82 1169.54 1028.15 1169.9 1027.57C1170.25 1026.99 1170.73 1026.54 1171.34 1026.22C1171.96 1025.89 1172.64 1025.73 1173.41 1025.73C1174.17 1025.73 1174.85 1025.89 1175.45 1026.22C1176.04 1026.54 1176.5 1026.98 1176.84 1027.53C1177.18 1028.08 1177.34 1028.69 1177.34 1029.36C1177.34 1029.84 1177.26 1030.31 1177.08 1030.77C1176.91 1031.23 1176.61 1031.74 1176.19 1032.3C1175.77 1032.86 1175.18 1033.54 1174.43 1034.35L1171.49 1037.49V1037.59H1177.57V1039H1169.32ZM1184.48 1039.18C1183.52 1039.18 1182.7 1038.92 1182.02 1038.39C1181.35 1037.86 1180.83 1037.1 1180.47 1036.1C1180.11 1035.09 1179.93 1033.88 1179.93 1032.45C1179.93 1031.04 1180.11 1029.83 1180.47 1028.83C1180.83 1027.82 1181.35 1027.06 1182.03 1026.53C1182.71 1026 1183.53 1025.73 1184.48 1025.73C1185.44 1025.73 1186.25 1026 1186.93 1026.53C1187.61 1027.06 1188.13 1027.82 1188.49 1028.83C1188.85 1029.83 1189.04 1031.04 1189.04 1032.45C1189.04 1033.88 1188.86 1035.09 1188.5 1036.1C1188.14 1037.1 1187.62 1037.86 1186.94 1038.39C1186.27 1038.92 1185.45 1039.18 1184.48 1039.18ZM1184.48 1037.77C1185.44 1037.77 1186.18 1037.31 1186.71 1036.39C1187.24 1035.47 1187.5 1034.16 1187.5 1032.45C1187.5 1031.32 1187.38 1030.36 1187.14 1029.56C1186.9 1028.76 1186.55 1028.15 1186.1 1027.74C1185.65 1027.32 1185.11 1027.11 1184.48 1027.11C1183.54 1027.11 1182.8 1027.58 1182.27 1028.51C1181.73 1029.44 1181.47 1030.75 1181.47 1032.45C1181.47 1033.59 1181.59 1034.55 1181.82 1035.34C1182.06 1036.14 1182.41 1036.74 1182.85 1037.15C1183.31 1037.57 1183.85 1037.77 1184.48 1037.77ZM1191.46 1039V1037.85L1195.79 1033.12C1196.29 1032.57 1196.71 1032.08 1197.04 1031.67C1197.37 1031.26 1197.61 1030.87 1197.77 1030.51C1197.93 1030.14 1198.01 1029.76 1198.01 1029.36C1198.01 1028.9 1197.9 1028.5 1197.68 1028.17C1197.46 1027.83 1197.16 1027.57 1196.78 1027.39C1196.4 1027.2 1195.98 1027.11 1195.5 1027.11C1195 1027.11 1194.56 1027.22 1194.19 1027.42C1193.82 1027.63 1193.53 1027.92 1193.32 1028.29C1193.12 1028.66 1193.02 1029.09 1193.02 1029.59H1191.52C1191.52 1028.82 1191.69 1028.15 1192.05 1027.57C1192.4 1026.99 1192.88 1026.54 1193.49 1026.22C1194.1 1025.89 1194.79 1025.73 1195.55 1025.73C1196.32 1025.73 1197 1025.89 1197.59 1026.22C1198.19 1026.54 1198.65 1026.98 1198.99 1027.53C1199.32 1028.08 1199.49 1028.69 1199.49 1029.36C1199.49 1029.84 1199.41 1030.31 1199.23 1030.77C1199.06 1031.23 1198.76 1031.74 1198.34 1032.3C1197.91 1032.86 1197.33 1033.54 1196.58 1034.35L1193.64 1037.49V1037.59H1199.72V1039H1191.46ZM1202.36 1039V1037.85L1206.68 1033.12C1207.19 1032.57 1207.61 1032.08 1207.94 1031.67C1208.26 1031.26 1208.51 1030.87 1208.66 1030.51C1208.83 1030.14 1208.91 1029.76 1208.91 1029.36C1208.91 1028.9 1208.8 1028.5 1208.58 1028.17C1208.36 1027.83 1208.06 1027.57 1207.68 1027.39C1207.3 1027.2 1206.88 1027.11 1206.4 1027.11C1205.9 1027.11 1205.46 1027.22 1205.09 1027.42C1204.71 1027.63 1204.43 1027.92 1204.22 1028.29C1204.02 1028.66 1203.92 1029.09 1203.92 1029.59H1202.41C1202.41 1028.82 1202.59 1028.15 1202.94 1027.57C1203.3 1026.99 1203.78 1026.54 1204.39 1026.22C1205 1025.89 1205.69 1025.73 1206.45 1025.73C1207.22 1025.73 1207.9 1025.89 1208.49 1026.22C1209.08 1026.54 1209.55 1026.98 1209.89 1027.53C1210.22 1028.08 1210.39 1028.69 1210.39 1029.36C1210.39 1029.84 1210.3 1030.31 1210.13 1030.77C1209.96 1031.23 1209.66 1031.74 1209.23 1032.3C1208.81 1032.86 1208.23 1033.54 1207.48 1034.35L1204.54 1037.49V1037.59H1210.62V1039H1202.36Z" fill="white"/>
<path d="M1423.72 1025.91V1039H1422.19L1415.05 1028.72H1414.93V1039H1413.34V1025.91H1414.87L1422.03 1036.21H1422.16V1025.91H1423.72ZM1430.68 1039.2C1429.79 1039.2 1429.01 1038.99 1428.34 1038.57C1427.68 1038.15 1427.16 1037.56 1426.78 1036.8C1426.41 1036.04 1426.23 1035.16 1426.23 1034.14C1426.23 1033.12 1426.41 1032.23 1426.78 1031.46C1427.16 1030.7 1427.68 1030.11 1428.34 1029.69C1429.01 1029.26 1429.79 1029.05 1430.68 1029.05C1431.56 1029.05 1432.34 1029.26 1433 1029.69C1433.67 1030.11 1434.19 1030.7 1434.56 1031.46C1434.94 1032.23 1435.13 1033.12 1435.13 1034.14C1435.13 1035.16 1434.94 1036.04 1434.56 1036.8C1434.19 1037.56 1433.67 1038.15 1433 1038.57C1432.34 1038.99 1431.56 1039.2 1430.68 1039.2ZM1430.68 1037.85C1431.35 1037.85 1431.9 1037.68 1432.34 1037.33C1432.77 1036.99 1433.1 1036.53 1433.3 1035.97C1433.51 1035.41 1433.62 1034.8 1433.62 1034.14C1433.62 1033.49 1433.51 1032.87 1433.3 1032.31C1433.1 1031.74 1432.77 1031.28 1432.34 1030.93C1431.9 1030.58 1431.35 1030.41 1430.68 1030.41C1430 1030.41 1429.45 1030.58 1429.02 1030.93C1428.58 1031.28 1428.26 1031.74 1428.05 1032.31C1427.84 1032.87 1427.74 1033.49 1427.74 1034.14C1427.74 1034.8 1427.84 1035.41 1428.05 1035.97C1428.26 1036.53 1428.58 1036.99 1429.02 1037.33C1429.45 1037.68 1430 1037.85 1430.68 1037.85ZM1445.11 1029.18L1441.48 1039H1439.94L1436.31 1029.18H1437.95L1440.66 1037.01H1440.76L1443.47 1029.18H1445.11ZM1452.13 1039V1037.85L1456.46 1033.12C1456.96 1032.57 1457.38 1032.08 1457.71 1031.67C1458.04 1031.26 1458.28 1030.87 1458.44 1030.51C1458.6 1030.14 1458.68 1029.76 1458.68 1029.36C1458.68 1028.9 1458.57 1028.5 1458.35 1028.17C1458.13 1027.83 1457.83 1027.57 1457.45 1027.39C1457.07 1027.2 1456.65 1027.11 1456.17 1027.11C1455.67 1027.11 1455.23 1027.22 1454.86 1027.42C1454.49 1027.63 1454.2 1027.92 1453.99 1028.29C1453.79 1028.66 1453.69 1029.09 1453.69 1029.59H1452.19C1452.19 1028.82 1452.36 1028.15 1452.72 1027.57C1453.07 1026.99 1453.55 1026.54 1454.16 1026.22C1454.77 1025.89 1455.46 1025.73 1456.23 1025.73C1456.99 1025.73 1457.67 1025.89 1458.26 1026.22C1458.86 1026.54 1459.32 1026.98 1459.66 1027.53C1459.99 1028.08 1460.16 1028.69 1460.16 1029.36C1460.16 1029.84 1460.08 1030.31 1459.9 1030.77C1459.73 1031.23 1459.43 1031.74 1459.01 1032.3C1458.58 1032.86 1458 1033.54 1457.25 1034.35L1454.31 1037.49V1037.59H1460.39V1039H1452.13ZM1467.3 1039.18C1466.34 1039.18 1465.52 1038.92 1464.84 1038.39C1464.16 1037.86 1463.65 1037.1 1463.29 1036.1C1462.93 1035.09 1462.75 1033.88 1462.75 1032.45C1462.75 1031.04 1462.93 1029.83 1463.29 1028.83C1463.65 1027.82 1464.17 1027.06 1464.85 1026.53C1465.53 1026 1466.35 1025.73 1467.3 1025.73C1468.26 1025.73 1469.07 1026 1469.75 1026.53C1470.43 1027.06 1470.95 1027.82 1471.31 1028.83C1471.67 1029.83 1471.85 1031.04 1471.85 1032.45C1471.85 1033.88 1471.67 1035.09 1471.32 1036.1C1470.96 1037.1 1470.44 1037.86 1469.76 1038.39C1469.09 1038.92 1468.27 1039.18 1467.3 1039.18ZM1467.3 1037.77C1468.26 1037.77 1469 1037.31 1469.53 1036.39C1470.06 1035.47 1470.32 1034.16 1470.32 1032.45C1470.32 1031.32 1470.2 1030.36 1469.96 1029.56C1469.72 1028.76 1469.37 1028.15 1468.92 1027.74C1468.47 1027.32 1467.93 1027.11 1467.3 1027.11C1466.36 1027.11 1465.62 1027.58 1465.08 1028.51C1464.55 1029.44 1464.29 1030.75 1464.29 1032.45C1464.29 1033.59 1464.4 1034.55 1464.64 1035.34C1464.88 1036.14 1465.23 1036.74 1465.67 1037.15C1466.12 1037.57 1466.67 1037.77 1467.3 1037.77ZM1474.28 1039V1037.85L1478.6 1033.12C1479.11 1032.57 1479.53 1032.08 1479.86 1031.67C1480.18 1031.26 1480.43 1030.87 1480.59 1030.51C1480.75 1030.14 1480.83 1029.76 1480.83 1029.36C1480.83 1028.9 1480.72 1028.5 1480.5 1028.17C1480.28 1027.83 1479.98 1027.57 1479.6 1027.39C1479.22 1027.2 1478.8 1027.11 1478.32 1027.11C1477.82 1027.11 1477.38 1027.22 1477.01 1027.42C1476.63 1027.63 1476.35 1027.92 1476.14 1028.29C1475.94 1028.66 1475.84 1029.09 1475.84 1029.59H1474.33C1474.33 1028.82 1474.51 1028.15 1474.86 1027.57C1475.22 1026.99 1475.7 1026.54 1476.31 1026.22C1476.92 1025.89 1477.61 1025.73 1478.37 1025.73C1479.14 1025.73 1479.82 1025.89 1480.41 1026.22C1481 1026.54 1481.47 1026.98 1481.81 1027.53C1482.14 1028.08 1482.31 1028.69 1482.31 1029.36C1482.31 1029.84 1482.22 1030.31 1482.05 1030.77C1481.88 1031.23 1481.58 1031.74 1481.15 1032.3C1480.73 1032.86 1480.15 1033.54 1479.4 1034.35L1476.46 1037.49V1037.59H1482.54V1039H1474.28ZM1485.18 1039V1037.85L1489.5 1033.12C1490.01 1032.57 1490.43 1032.08 1490.75 1031.67C1491.08 1031.26 1491.33 1030.87 1491.48 1030.51C1491.65 1030.14 1491.73 1029.76 1491.73 1029.36C1491.73 1028.9 1491.62 1028.5 1491.39 1028.17C1491.18 1027.83 1490.88 1027.57 1490.5 1027.39C1490.12 1027.2 1489.69 1027.11 1489.22 1027.11C1488.72 1027.11 1488.28 1027.22 1487.9 1027.42C1487.53 1027.63 1487.25 1027.92 1487.04 1028.29C1486.84 1028.66 1486.74 1029.09 1486.74 1029.59H1485.23C1485.23 1028.82 1485.41 1028.15 1485.76 1027.57C1486.12 1026.99 1486.6 1026.54 1487.21 1026.22C1487.82 1025.89 1488.51 1025.73 1489.27 1025.73C1490.04 1025.73 1490.72 1025.89 1491.31 1026.22C1491.9 1026.54 1492.37 1026.98 1492.7 1027.53C1493.04 1028.08 1493.21 1028.69 1493.21 1029.36C1493.21 1029.84 1493.12 1030.31 1492.95 1030.77C1492.78 1031.23 1492.48 1031.74 1492.05 1032.3C1491.63 1032.86 1491.04 1033.54 1490.29 1034.35L1487.35 1037.49V1037.59H1493.44V1039H1485.18Z" fill="white"/>
<path d="M1701.13 1025.91H1702.71V1035.27C1702.71 1036.1 1702.56 1036.81 1702.25 1037.4C1701.95 1037.98 1701.51 1038.42 1700.96 1038.73C1700.4 1039.03 1699.74 1039.18 1698.98 1039.18C1698.27 1039.18 1697.63 1039.05 1697.07 1038.79C1696.51 1038.52 1696.07 1038.15 1695.75 1037.66C1695.43 1037.18 1695.27 1036.6 1695.27 1035.93H1696.83C1696.83 1036.3 1696.92 1036.63 1697.11 1036.9C1697.3 1037.18 1697.55 1037.39 1697.88 1037.54C1698.2 1037.7 1698.57 1037.77 1698.98 1037.77C1699.44 1037.77 1699.82 1037.68 1700.14 1037.49C1700.46 1037.29 1700.71 1037.01 1700.87 1036.64C1701.04 1036.27 1701.13 1035.81 1701.13 1035.27V1025.91ZM1708.58 1039.23C1707.95 1039.23 1707.39 1039.11 1706.88 1038.88C1706.37 1038.64 1705.97 1038.3 1705.67 1037.85C1705.38 1037.4 1705.23 1036.85 1705.23 1036.21C1705.23 1035.65 1705.34 1035.19 1705.56 1034.85C1705.78 1034.49 1706.08 1034.21 1706.45 1034.01C1706.82 1033.81 1707.23 1033.66 1707.67 1033.57C1708.13 1033.46 1708.58 1033.38 1709.04 1033.32C1709.63 1033.25 1710.12 1033.19 1710.49 1033.15C1710.86 1033.11 1711.13 1033.04 1711.3 1032.94C1711.48 1032.84 1711.57 1032.67 1711.57 1032.43V1032.38C1711.57 1031.75 1711.39 1031.26 1711.05 1030.91C1710.71 1030.56 1710.19 1030.38 1709.5 1030.38C1708.78 1030.38 1708.21 1030.54 1707.8 1030.86C1707.39 1031.17 1707.11 1031.51 1706.94 1031.87L1705.51 1031.36C1705.76 1030.76 1706.1 1030.29 1706.53 1029.96C1706.96 1029.62 1707.43 1029.39 1707.94 1029.26C1708.45 1029.12 1708.95 1029.05 1709.44 1029.05C1709.76 1029.05 1710.12 1029.09 1710.53 1029.17C1710.94 1029.24 1711.34 1029.39 1711.73 1029.62C1712.11 1029.85 1712.44 1030.2 1712.69 1030.66C1712.95 1031.13 1713.08 1031.75 1713.08 1032.53V1039H1711.57V1037.67H1711.49C1711.39 1037.88 1711.22 1038.11 1710.98 1038.35C1710.74 1038.6 1710.42 1038.8 1710.03 1038.97C1709.63 1039.14 1709.15 1039.23 1708.58 1039.23ZM1708.81 1037.88C1709.4 1037.88 1709.91 1037.76 1710.31 1037.52C1710.73 1037.29 1711.04 1036.99 1711.25 1036.62C1711.46 1036.25 1711.57 1035.86 1711.57 1035.45V1034.07C1711.5 1034.14 1711.36 1034.21 1711.15 1034.28C1710.93 1034.34 1710.68 1034.39 1710.4 1034.44C1710.13 1034.48 1709.86 1034.52 1709.59 1034.55C1709.33 1034.58 1709.12 1034.61 1708.96 1034.63C1708.57 1034.68 1708.2 1034.76 1707.86 1034.88C1707.52 1034.99 1707.25 1035.16 1707.04 1035.38C1706.84 1035.6 1706.73 1035.91 1706.73 1036.29C1706.73 1036.81 1706.93 1037.21 1707.32 1037.48C1707.71 1037.74 1708.2 1037.88 1708.81 1037.88ZM1717.34 1033.09V1039H1715.83V1029.18H1717.29V1030.72H1717.41C1717.64 1030.22 1717.99 1029.82 1718.46 1029.51C1718.93 1029.21 1719.54 1029.05 1720.28 1029.05C1720.94 1029.05 1721.52 1029.19 1722.02 1029.46C1722.52 1029.73 1722.91 1030.14 1723.19 1030.69C1723.46 1031.24 1723.6 1031.93 1723.6 1032.76V1039H1722.09V1032.86C1722.09 1032.09 1721.89 1031.49 1721.49 1031.06C1721.09 1030.63 1720.54 1030.41 1719.84 1030.41C1719.36 1030.41 1718.93 1030.51 1718.55 1030.72C1718.18 1030.93 1717.88 1031.24 1717.66 1031.64C1717.45 1032.04 1717.34 1032.52 1717.34 1033.09ZM1731.4 1039V1037.85L1735.72 1033.12C1736.22 1032.57 1736.64 1032.08 1736.97 1031.67C1737.3 1031.26 1737.54 1030.87 1737.7 1030.51C1737.86 1030.14 1737.94 1029.76 1737.94 1029.36C1737.94 1028.9 1737.83 1028.5 1737.61 1028.17C1737.39 1027.83 1737.09 1027.57 1736.71 1027.39C1736.33 1027.2 1735.91 1027.11 1735.43 1027.11C1734.93 1027.11 1734.49 1027.22 1734.12 1027.42C1733.75 1027.63 1733.46 1027.92 1733.26 1028.29C1733.05 1028.66 1732.95 1029.09 1732.95 1029.59H1731.45C1731.45 1028.82 1731.62 1028.15 1731.98 1027.57C1732.33 1026.99 1732.81 1026.54 1733.42 1026.22C1734.04 1025.89 1734.72 1025.73 1735.49 1025.73C1736.25 1025.73 1736.93 1025.89 1737.53 1026.22C1738.12 1026.54 1738.58 1026.98 1738.92 1027.53C1739.26 1028.08 1739.42 1028.69 1739.42 1029.36C1739.42 1029.84 1739.34 1030.31 1739.16 1030.77C1738.99 1031.23 1738.69 1031.74 1738.27 1032.3C1737.84 1032.86 1737.26 1033.54 1736.51 1034.35L1733.57 1037.49V1037.59H1739.65V1039H1731.4ZM1746.56 1039.18C1745.6 1039.18 1744.78 1038.92 1744.1 1038.39C1743.42 1037.86 1742.91 1037.1 1742.55 1036.1C1742.19 1035.09 1742.01 1033.88 1742.01 1032.45C1742.01 1031.04 1742.19 1029.83 1742.55 1028.83C1742.91 1027.82 1743.43 1027.06 1744.11 1026.53C1744.79 1026 1745.61 1025.73 1746.56 1025.73C1747.52 1025.73 1748.33 1026 1749.01 1026.53C1749.69 1027.06 1750.21 1027.82 1750.57 1028.83C1750.93 1029.83 1751.11 1031.04 1751.11 1032.45C1751.11 1033.88 1750.94 1035.09 1750.58 1036.1C1750.22 1037.1 1749.7 1037.86 1749.02 1038.39C1748.35 1038.92 1747.53 1039.18 1746.56 1039.18ZM1746.56 1037.77C1747.52 1037.77 1748.26 1037.31 1748.79 1036.39C1749.32 1035.47 1749.58 1034.16 1749.58 1032.45C1749.58 1031.32 1749.46 1030.36 1749.22 1029.56C1748.98 1028.76 1748.63 1028.15 1748.18 1027.74C1747.73 1027.32 1747.19 1027.11 1746.56 1027.11C1745.62 1027.11 1744.88 1027.58 1744.35 1028.51C1743.81 1029.44 1743.55 1030.75 1743.55 1032.45C1743.55 1033.59 1743.67 1034.55 1743.9 1035.34C1744.14 1036.14 1744.49 1036.74 1744.93 1037.15C1745.39 1037.57 1745.93 1037.77 1746.56 1037.77ZM1753.54 1039V1037.85L1757.86 1033.12C1758.37 1032.57 1758.79 1032.08 1759.12 1031.67C1759.45 1031.26 1759.69 1030.87 1759.85 1030.51C1760.01 1030.14 1760.09 1029.76 1760.09 1029.36C1760.09 1028.9 1759.98 1028.5 1759.76 1028.17C1759.54 1027.83 1759.24 1027.57 1758.86 1027.39C1758.48 1027.2 1758.06 1027.11 1757.58 1027.11C1757.08 1027.11 1756.64 1027.22 1756.27 1027.42C1755.9 1027.63 1755.61 1027.92 1755.4 1028.29C1755.2 1028.66 1755.1 1029.09 1755.1 1029.59H1753.59C1753.59 1028.82 1753.77 1028.15 1754.13 1027.57C1754.48 1026.99 1754.96 1026.54 1755.57 1026.22C1756.18 1025.89 1756.87 1025.73 1757.63 1025.73C1758.4 1025.73 1759.08 1025.89 1759.67 1026.22C1760.27 1026.54 1760.73 1026.98 1761.07 1027.53C1761.4 1028.08 1761.57 1028.69 1761.57 1029.36C1761.57 1029.84 1761.48 1030.31 1761.31 1030.77C1761.14 1031.23 1760.84 1031.74 1760.42 1032.3C1759.99 1032.86 1759.41 1033.54 1758.66 1034.35L1755.72 1037.49V1037.59H1761.8V1039H1753.54ZM1768.87 1039.18C1768.02 1039.18 1767.27 1039.03 1766.61 1038.74C1765.95 1038.45 1765.43 1038.05 1765.04 1037.54C1764.66 1037.02 1764.45 1036.41 1764.42 1035.73H1766.03C1766.06 1036.15 1766.21 1036.51 1766.46 1036.82C1766.72 1037.12 1767.05 1037.36 1767.47 1037.52C1767.88 1037.69 1768.34 1037.77 1768.84 1037.77C1769.4 1037.77 1769.9 1037.67 1770.34 1037.48C1770.77 1037.28 1771.11 1037.01 1771.36 1036.66C1771.61 1036.31 1771.73 1035.91 1771.73 1035.45C1771.73 1034.96 1771.61 1034.54 1771.37 1034.17C1771.13 1033.8 1770.78 1033.51 1770.32 1033.3C1769.86 1033.1 1769.3 1032.99 1768.64 1032.99H1767.59V1031.59H1768.64C1769.16 1031.59 1769.61 1031.49 1770 1031.3C1770.4 1031.12 1770.71 1030.85 1770.93 1030.51C1771.16 1030.17 1771.27 1029.77 1771.27 1029.31C1771.27 1028.87 1771.17 1028.48 1770.97 1028.15C1770.78 1027.82 1770.5 1027.57 1770.14 1027.39C1769.79 1027.2 1769.37 1027.11 1768.89 1027.11C1768.44 1027.11 1768.01 1027.19 1767.61 1027.36C1767.22 1027.52 1766.89 1027.76 1766.64 1028.07C1766.39 1028.38 1766.25 1028.75 1766.23 1029.18H1764.7C1764.72 1028.5 1764.93 1027.89 1765.32 1027.38C1765.71 1026.86 1766.21 1026.45 1766.84 1026.16C1767.47 1025.87 1768.16 1025.73 1768.92 1025.73C1769.73 1025.73 1770.42 1025.89 1771 1026.22C1771.58 1026.55 1772.03 1026.97 1772.34 1027.51C1772.65 1028.04 1772.8 1028.62 1772.8 1029.23C1772.8 1029.97 1772.61 1030.6 1772.22 1031.12C1771.84 1031.64 1771.32 1032 1770.66 1032.2V1032.3C1771.48 1032.44 1772.13 1032.79 1772.59 1033.36C1773.06 1033.92 1773.29 1034.62 1773.29 1035.45C1773.29 1036.16 1773.09 1036.8 1772.71 1037.36C1772.32 1037.93 1771.8 1038.37 1771.13 1038.69C1770.47 1039.02 1769.71 1039.18 1768.87 1039.18Z" fill="white"/>
<path d="M10.6657 939.25V938.099L14.9867 933.369C15.4938 932.815 15.9114 932.334 16.2395 931.925C16.5676 931.511 16.8105 931.124 16.9682 930.761C17.1301 930.395 17.2111 930.011 17.2111 929.611C17.2111 929.151 17.1003 928.752 16.8787 928.415C16.6614 928.079 16.3631 927.819 15.9838 927.636C15.6046 927.452 15.1784 927.361 14.7054 927.361C14.2026 927.361 13.7637 927.465 13.3887 927.674C13.0179 927.879 12.7303 928.166 12.5257 928.537C12.3255 928.908 12.2253 929.342 12.2253 929.841H10.7168C10.7168 929.074 10.8936 928.401 11.2473 927.821C11.601 927.241 12.0826 926.79 12.6919 926.466C13.3056 926.142 13.9938 925.98 14.7566 925.98C15.5236 925.98 16.2033 926.142 16.7956 926.466C17.388 926.79 17.8525 927.227 18.1891 927.776C18.5257 928.326 18.6941 928.938 18.6941 929.611C18.6941 930.092 18.6067 930.563 18.432 931.023C18.2615 931.479 17.9632 931.989 17.5371 932.551C17.1152 933.109 16.5293 933.791 15.7793 934.597L12.839 937.741V937.844H18.9242V939.25H10.6657ZM22.9959 935.67L22.9703 933.804H23.2772L27.5726 929.432H29.4391L24.8624 934.06H24.7346L22.9959 935.67ZM21.5897 939.25V926.159H23.0982V939.25H21.5897ZM27.8283 939.25L23.9931 934.392L25.0669 933.344L29.7459 939.25H27.8283Z" fill="white"/>
<path d="M9.70845 815.255V813.951L15.4613 804.849H16.4073V806.869H15.7681L11.4215 813.747V813.849H19.1687V815.255H9.70845ZM15.8704 817.94V814.859V814.252V804.849H17.3789V817.94H15.8704ZM22.9959 814.36L22.9703 812.494H23.2772L27.5726 808.122H29.4391L24.8624 812.75H24.7346L22.9959 814.36ZM21.5897 817.94V804.849H23.0982V817.94H21.5897ZM27.8283 817.94L23.9931 813.082L25.0669 812.034L29.7459 817.94H27.8283Z" fill="white"/>
<path d="M14.6783 696.809C14.1413 696.8 13.6044 696.698 13.0675 696.502C12.5305 696.306 12.0405 695.976 11.5973 695.511C11.1541 695.043 10.7983 694.41 10.5298 693.613C10.2614 692.812 10.1271 691.806 10.1271 690.596C10.1271 689.437 10.2358 688.41 10.4531 687.515C10.6705 686.616 10.9858 685.859 11.3991 685.246C11.8125 684.628 12.3111 684.159 12.8949 683.84C13.483 683.52 14.1456 683.36 14.8828 683.36C15.6158 683.36 16.2678 683.507 16.8388 683.801C17.4141 684.091 17.8828 684.496 18.245 685.016C18.6072 685.536 18.8416 686.134 18.9482 686.812H17.3885C17.2436 686.224 16.9624 685.736 16.5447 685.348C16.1271 684.96 15.5732 684.766 14.8828 684.766C13.8686 684.766 13.0696 685.207 12.4858 686.09C11.9063 686.972 11.6143 688.21 11.6101 689.803H11.7124C11.951 689.441 12.2344 689.132 12.5625 688.876C12.8949 688.617 13.2614 688.416 13.6619 688.276C14.0625 688.135 14.4865 688.065 14.9339 688.065C15.6839 688.065 16.37 688.252 16.9922 688.627C17.6143 688.998 18.1129 689.511 18.4879 690.168C18.8629 690.82 19.0504 691.568 19.0504 692.411C19.0504 693.221 18.8693 693.962 18.5071 694.636C18.1449 695.305 17.6357 695.837 16.9794 696.234C16.3274 696.626 15.5604 696.818 14.6783 696.809ZM14.6783 695.403C15.2152 695.403 15.6967 695.268 16.1229 695C16.5533 694.732 16.892 694.371 17.1392 693.92C17.3906 693.468 17.5163 692.965 17.5163 692.411C17.5163 691.87 17.3949 691.378 17.152 690.935C16.9134 690.487 16.5831 690.131 16.1612 689.867C15.7436 689.603 15.2663 689.471 14.7294 689.471C14.3246 689.471 13.9474 689.552 13.598 689.714C13.2486 689.871 12.9418 690.089 12.6776 690.366C12.4176 690.643 12.2131 690.96 12.0639 691.318C11.9148 691.672 11.8402 692.045 11.8402 692.437C11.8402 692.957 11.9616 693.443 12.2045 693.894C12.4517 694.346 12.7884 694.71 13.2145 694.987C13.6449 695.264 14.1328 695.403 14.6783 695.403ZM22.9959 693.05L22.9703 691.184H23.2772L27.5726 686.812H29.4391L24.8624 691.44H24.7346L22.9959 693.05ZM21.5897 696.63V683.539H23.0982V696.63H21.5897ZM27.8283 696.63L23.9931 691.772L25.0669 690.724L29.7459 696.63H27.8283Z" fill="white"/>
<path d="M14.6655 575.499C13.7876 575.499 13.0121 575.343 12.3388 575.032C11.6697 574.717 11.1477 574.284 10.7727 573.735C10.3977 573.181 10.2124 572.55 10.2166 571.843C10.2124 571.289 10.321 570.777 10.5426 570.309C10.7642 569.836 11.0668 569.441 11.4503 569.126C11.8381 568.807 12.2706 568.604 12.7479 568.519V568.442C12.1214 568.28 11.6229 567.929 11.2521 567.387C10.8814 566.842 10.6982 566.222 10.7024 565.527C10.6982 564.863 10.8665 564.268 11.2074 563.744C11.5483 563.22 12.017 562.807 12.6136 562.504C13.2145 562.201 13.8984 562.05 14.6655 562.05C15.424 562.05 16.1016 562.201 16.6982 562.504C17.2947 562.807 17.7635 563.22 18.1044 563.744C18.4496 564.268 18.6243 564.863 18.6286 565.527C18.6243 566.222 18.4347 566.842 18.0597 567.387C17.6889 567.929 17.1967 568.28 16.5831 568.442V568.519C17.0561 568.604 17.4822 568.807 17.8615 569.126C18.2408 569.441 18.5433 569.836 18.7692 570.309C18.995 570.777 19.1101 571.289 19.1143 571.843C19.1101 572.55 18.9183 573.181 18.5391 573.735C18.1641 574.284 17.642 574.717 16.973 575.032C16.3082 575.343 15.5391 575.499 14.6655 575.499ZM14.6655 574.093C15.2578 574.093 15.7692 573.997 16.1996 573.805C16.63 573.613 16.9624 573.343 17.1967 572.993C17.4311 572.644 17.5504 572.235 17.5547 571.766C17.5504 571.272 17.4226 570.835 17.1712 570.456C16.9197 570.076 16.5767 569.778 16.142 569.561C15.7116 569.343 15.2195 569.235 14.6655 569.235C14.1072 569.235 13.6087 569.343 13.1697 569.561C12.7351 569.778 12.392 570.076 12.1406 570.456C11.8935 570.835 11.772 571.272 11.7763 571.766C11.772 572.235 11.8849 572.644 12.1151 572.993C12.3494 573.343 12.6839 573.613 13.1186 573.805C13.5533 573.997 14.0689 574.093 14.6655 574.093ZM14.6655 567.88C15.1342 567.88 15.5497 567.786 15.9119 567.598C16.2784 567.411 16.5661 567.149 16.7749 566.812C16.9837 566.476 17.0902 566.081 17.0945 565.63C17.0902 565.186 16.9858 564.801 16.7812 564.473C16.5767 564.14 16.2933 563.885 15.9311 563.706C15.5689 563.522 15.147 563.431 14.6655 563.431C14.1754 563.431 13.7472 563.522 13.3807 563.706C13.0142 563.885 12.7308 564.14 12.5305 564.473C12.3303 564.801 12.2322 565.186 12.2365 565.63C12.2322 566.081 12.3324 566.476 12.5369 566.812C12.7457 567.149 13.0334 567.411 13.3999 567.598C13.7663 567.786 14.1882 567.88 14.6655 567.88ZM22.9959 571.74L22.9703 569.874H23.2772L27.5726 565.502H29.4391L24.8624 570.13H24.7346L22.9959 571.74ZM21.5897 575.32V562.229H23.0982V575.32H21.5897ZM27.8283 575.32L23.9931 570.462L25.0669 569.414L29.7459 575.32H27.8283Z" fill="white"/>
<path d="M6.54918 440.919V454.01H4.96396V442.581H4.88725L1.69123 444.703V443.092L4.96396 440.919H6.54918ZM14.584 454.189C13.6209 454.189 12.8006 453.927 12.123 453.403C11.4455 452.874 10.9277 452.109 10.5698 451.108C10.2118 450.102 10.0328 448.888 10.0328 447.465C10.0328 446.05 10.2118 444.842 10.5698 443.84C10.932 442.835 11.4519 442.068 12.1294 441.539C12.8113 441.006 13.6294 440.74 14.584 440.74C15.5385 440.74 16.3546 441.006 17.0321 441.539C17.714 442.068 18.2338 442.835 18.5918 443.84C18.954 444.842 19.1351 446.05 19.1351 447.465C19.1351 448.888 18.9561 450.102 18.5982 451.108C18.2402 452.109 17.7225 452.874 17.0449 453.403C16.3674 453.927 15.5471 454.189 14.584 454.189ZM14.584 452.783C15.5385 452.783 16.28 452.323 16.8084 451.402C17.3368 450.482 17.601 449.169 17.601 447.465C17.601 446.331 17.4796 445.366 17.2367 444.569C16.998 443.772 16.6529 443.165 16.2012 442.747C15.7537 442.33 15.2147 442.121 14.584 442.121C13.638 442.121 12.8986 442.587 12.3659 443.521C11.8333 444.45 11.5669 445.764 11.5669 447.465C11.5669 448.598 11.6863 449.561 11.9249 450.354C12.1635 451.146 12.5066 451.749 12.954 452.163C13.4057 452.576 13.949 452.783 14.584 452.783ZM22.9959 450.43L22.9703 448.564H23.2772L27.5726 444.192H29.4391L24.8624 448.82H24.7346L22.9959 450.43ZM21.5897 454.01V440.919H23.0982V454.01H21.5897ZM27.8283 454.01L23.9931 449.152L25.0669 448.104L29.7459 454.01H27.8283Z" fill="white"/>
<path d="M6.90075 319.609V332.7H5.31552V321.271H5.23881L2.04279 323.393V321.782L5.31552 319.609H6.90075ZM10.6657 332.7V331.549L14.9867 326.819C15.4938 326.265 15.9114 325.784 16.2395 325.375C16.5676 324.961 16.8105 324.574 16.9682 324.211C17.1301 323.845 17.2111 323.461 17.2111 323.061C17.2111 322.601 17.1003 322.202 16.8787 321.865C16.6614 321.529 16.3631 321.269 15.9838 321.086C15.6046 320.902 15.1784 320.811 14.7054 320.811C14.2026 320.811 13.7637 320.915 13.3887 321.124C13.0179 321.329 12.7303 321.616 12.5257 321.987C12.3255 322.358 12.2253 322.792 12.2253 323.291H10.7168C10.7168 322.524 10.8936 321.851 11.2473 321.271C11.601 320.691 12.0826 320.24 12.6919 319.916C13.3056 319.592 13.9938 319.43 14.7566 319.43C15.5236 319.43 16.2033 319.592 16.7956 319.916C17.388 320.24 17.8525 320.677 18.1891 321.226C18.5257 321.776 18.6941 322.388 18.6941 323.061C18.6941 323.542 18.6067 324.013 18.432 324.473C18.2615 324.929 17.9632 325.439 17.5371 326.001C17.1152 326.559 16.5293 327.241 15.7793 328.047L12.839 331.191V331.294H18.9242V332.7H10.6657ZM22.9959 329.12L22.9703 327.254H23.2772L27.5726 322.882H29.4391L24.8624 327.51H24.7346L22.9959 329.12ZM21.5897 332.7V319.609H23.0982V332.7H21.5897ZM27.8283 332.7L23.9931 327.842L25.0669 326.794L29.7459 332.7H27.8283Z" fill="white"/>
<path d="M6.25036 198.299V211.39H4.66513V199.961H4.58842L1.3924 202.083V200.472L4.66513 198.299H6.25036ZM9.70845 208.705V207.401L15.4613 198.299H16.4073V200.319H15.7681L11.4215 207.197V207.299H19.1687V208.705H9.70845ZM15.8704 211.39V208.309V207.702V198.299H17.3789V211.39H15.8704ZM22.9959 207.81L22.9703 205.944H23.2772L27.5726 201.572H29.4391L24.8624 206.2H24.7346L22.9959 207.81ZM21.5897 211.39V198.299H23.0982V211.39H21.5897ZM27.8283 211.39L23.9931 206.532L25.0669 205.484L29.7459 211.39H27.8283Z" fill="white"/>
<path d="M6.56676 76.9891V90.08H4.98153V78.651H4.90483L1.70881 80.7732V79.1624L4.98153 76.9891H6.56676ZM14.6783 90.259C14.1413 90.2505 13.6044 90.1482 13.0675 89.9522C12.5305 89.7562 12.0405 89.4259 11.5973 88.9614C11.1541 88.4927 10.7983 87.8598 10.5298 87.063C10.2614 86.2618 10.1271 85.2562 10.1271 84.0459C10.1271 82.8868 10.2358 81.8598 10.4531 80.965C10.6705 80.0658 10.9858 79.3094 11.3991 78.6958C11.8125 78.0779 12.3111 77.6091 12.8949 77.2895C13.483 76.9699 14.1456 76.8101 14.8828 76.8101C15.6158 76.8101 16.2678 76.9571 16.8388 77.2512C17.4141 77.541 17.8828 77.9458 18.245 78.4657C18.6072 78.9856 18.8416 79.5843 18.9482 80.2618H17.3885C17.2436 79.6738 16.9624 79.1858 16.5447 78.7981C16.1271 78.4103 15.5732 78.2164 14.8828 78.2164C13.8686 78.2164 13.0696 78.6574 12.4858 79.5395C11.9063 80.4216 11.6143 81.6596 11.6101 83.2533H11.7124C11.951 82.8911 12.2344 82.5821 12.5625 82.3265C12.8949 82.0665 13.2614 81.8662 13.6619 81.7256C14.0625 81.585 14.4865 81.5147 14.9339 81.5147C15.6839 81.5147 16.37 81.7022 16.9922 82.0772C17.6143 82.4479 18.1129 82.9614 18.4879 83.6177C18.8629 84.2696 19.0504 85.0175 19.0504 85.8613C19.0504 86.6709 18.8693 87.4124 18.5071 88.0857C18.1449 88.7547 17.6357 89.2874 16.9794 89.6837C16.3274 90.0758 15.5604 90.2675 14.6783 90.259ZM14.6783 88.8527C15.2152 88.8527 15.6967 88.7185 16.1229 88.45C16.5533 88.1816 16.892 87.8215 17.1392 87.3698C17.3906 86.9181 17.5163 86.4152 17.5163 85.8613C17.5163 85.3201 17.3949 84.8279 17.152 84.3847C16.9134 83.9373 16.5831 83.5814 16.1612 83.3172C15.7436 83.053 15.2663 82.9209 14.7294 82.9209C14.3246 82.9209 13.9474 83.0019 13.598 83.1638C13.2486 83.3215 12.9418 83.5388 12.6776 83.8158C12.4176 84.0928 12.2131 84.4103 12.0639 84.7682C11.9148 85.1219 11.8402 85.4948 11.8402 85.8868C11.8402 86.4067 11.9616 86.8925 12.2045 87.3442C12.4517 87.7959 12.7884 88.1603 13.2145 88.4373C13.6449 88.7142 14.1328 88.8527 14.6783 88.8527ZM22.9959 86.5005L22.9703 84.634H23.2772L27.5726 80.2618H29.4391L24.8624 84.8897H24.7346L22.9959 86.5005ZM21.5897 90.08V76.9891H23.0982V90.08H21.5897ZM27.8283 90.08L23.9931 85.2221L25.0669 84.1738L29.7459 90.08H27.8283Z" fill="white"/>
</svg>
